<svg width="20" height="20" viewBox="0 0 20 20" fill="none" xmlns="http://www.w3.org/2000/svg">
<g clip-path="url(#clip0_358_6512)">
<path d="M10 2.5C11.9465 4.22215 14.4871 5.11881 17.0833 5C17.4613 6.28585 17.577 7.63456 17.4234 8.96598C17.2699 10.2974 16.8503 11.5844 16.1895 12.7504C15.5287 13.9165 14.6403 14.9378 13.577 15.7537C12.5138 16.5696 11.2973 17.1635 10 17.5C8.70268 17.1635 7.48623 16.5696 6.42296 15.7537C5.35968 14.9378 4.47126 13.9165 3.8105 12.7504C3.14974 11.5844 2.73011 10.2974 2.57656 8.96598C2.42302 7.63456 2.53867 6.28585 2.91667 5C5.51294 5.11881 8.05348 4.22215 10 2.5Z" stroke="#424242" stroke-width="1.5" stroke-linecap="round" stroke-linejoin="round"/>
<path d="M10 2.5V17.5" stroke="#424242" stroke-width="1.5" stroke-linecap="round" stroke-linejoin="round"/>
</g>
<defs>
<clipPath id="clip0_358_6512">
<rect width="20" height="20" fill="white"/>
</clipPath>
</defs>
</svg>
