<svg width="20" height="20" viewBox="0 0 20 20" fill="none" xmlns="http://www.w3.org/2000/svg">
<g clip-path="url(#clip0_701_28950)">
<path d="M2.5 10C2.5 10.9849 2.69399 11.9602 3.0709 12.8701C3.44781 13.7801 4.00026 14.6069 4.6967 15.3033C5.39314 15.9997 6.21993 16.5522 7.12987 16.9291C8.03982 17.306 9.01509 17.5 10 17.5C10.9849 17.5 11.9602 17.306 12.8701 16.9291C13.7801 16.5522 14.6069 15.9997 15.3033 15.3033C15.9997 14.6069 16.5522 13.7801 16.9291 12.8701C17.306 11.9602 17.5 10.9849 17.5 10C17.5 9.01509 17.306 8.03982 16.9291 7.12987C16.5522 6.21993 15.9997 5.39314 15.3033 4.6967C14.6069 4.00026 13.7801 3.44781 12.8701 3.0709C11.9602 2.69399 10.9849 2.5 10 2.5C9.01509 2.5 8.03982 2.69399 7.12987 3.0709C6.21993 3.44781 5.39314 4.00026 4.6967 4.6967C4.00026 5.39314 3.44781 6.21993 3.0709 7.12987C2.69399 8.03982 2.5 9.01509 2.5 10Z" stroke="#424242" stroke-width="1.5" stroke-linecap="round" stroke-linejoin="round"/>
<path d="M8.33333 13.75L10 11.25M10 11.25L11.6667 13.75M10 11.25V9.58333M10 9.58333L12.5 8.75M10 9.58333L7.5 8.75" stroke="#424242" stroke-width="1.5" stroke-linecap="round" stroke-linejoin="round"/>
<path d="M9.58334 6.24967C9.58334 6.36018 9.62723 6.46616 9.70537 6.5443C9.78351 6.62244 9.8895 6.66634 10 6.66634C10.1105 6.66634 10.2165 6.62244 10.2946 6.5443C10.3728 6.46616 10.4167 6.36018 10.4167 6.24967C10.4167 6.13917 10.3728 6.03319 10.2946 5.95505C10.2165 5.87691 10.1105 5.83301 10 5.83301C9.8895 5.83301 9.78351 5.87691 9.70537 5.95505C9.62723 6.03319 9.58334 6.13917 9.58334 6.24967Z" fill="#424242" stroke="#424242" stroke-width="1.5" stroke-linecap="round" stroke-linejoin="round"/>
</g>
<defs>
<clipPath id="clip0_701_28950">
<rect width="20" height="20" fill="white"/>
</clipPath>
</defs>
</svg>
