<svg width="24" height="24" viewBox="0 0 24 24" fill="none" xmlns="http://www.w3.org/2000/svg">
<path fill-rule="evenodd" clip-rule="evenodd" d="M15.6851 3.83145C16.56 2.81746 17.1497 1.40518 16.9883 0C15.7275 0.048 14.2022 0.805376 13.2982 1.81816C12.4865 2.71695 11.7778 4.15308 11.9683 5.53066C13.3747 5.63505 14.8102 4.84662 15.6851 3.83145ZM18.8388 12.75C18.874 16.3824 22.1636 17.5907 22.2 17.6063C22.1733 17.6915 21.6746 19.3279 20.4672 21.0199C19.4224 22.4815 18.3389 23.9372 16.6315 23.9684C14.9546 23.9984 14.4146 23.0156 12.4962 23.0156C10.5789 23.0156 9.9795 23.937 8.39232 23.9982C6.74448 24.057 5.48857 22.4169 4.43652 20.9602C2.28388 17.9806 0.639681 12.5401 2.84813 8.86816C3.94508 7.04539 5.90478 5.88935 8.03314 5.86055C9.65065 5.83055 11.1784 6.90352 12.1673 6.90352C13.1563 6.90352 15.0128 5.61353 16.964 5.80313C17.7807 5.83553 20.0741 6.11863 21.546 8.18379C21.427 8.25459 18.8097 9.71405 18.8388 12.75Z" fill="black"/>
</svg>
