<svg width="30" height="13" viewBox="0 0 30 13" fill="none" xmlns="http://www.w3.org/2000/svg">
<path fill-rule="evenodd" clip-rule="evenodd" d="M3.91985 2.26432C4.47047 2.31077 5.02108 1.98564 5.36522 1.57341C5.70362 1.14958 5.92731 0.580596 5.86996 0C5.38243 0.023224 4.78019 0.325134 4.43605 0.748968C4.12059 1.11474 3.85102 1.70695 3.91985 2.26432ZM10.4699 9.74238V0.690906H13.8253C15.5574 0.690906 16.7676 1.89854 16.7676 3.66355C16.7676 5.42856 15.5345 6.64781 13.7794 6.64781H11.8579V9.74238H10.4699ZM5.86417 2.37463C5.37909 2.34637 4.93647 2.5223 4.57895 2.66441C4.34888 2.75586 4.15406 2.8333 4.00583 2.8333C3.8395 2.8333 3.63663 2.75172 3.40885 2.66012C3.11039 2.5401 2.76916 2.40288 2.41133 2.40947C1.59114 2.42108 0.828301 2.89136 0.4096 3.64033C-0.450742 5.13826 0.185911 7.35614 1.01758 8.57539C1.42481 9.17921 1.91233 9.84108 2.55472 9.81786C2.83734 9.80707 3.04063 9.71974 3.25102 9.62937C3.49324 9.52533 3.74486 9.41725 4.13775 9.41725C4.51702 9.41725 4.75764 9.52251 4.98862 9.62356C5.20825 9.71964 5.41915 9.81191 5.73225 9.80625C6.39759 9.79464 6.81629 9.20243 7.22352 8.59861C7.66298 7.95055 7.8561 7.31808 7.88541 7.22209L7.88885 7.21099C7.88815 7.21028 7.88272 7.20776 7.87314 7.20332C7.72623 7.13524 6.60337 6.61489 6.5926 5.21955C6.58179 4.04836 7.48322 3.45496 7.62512 3.36155C7.63376 3.35586 7.63958 3.35203 7.64222 3.35003C7.06865 2.49075 6.1739 2.39785 5.86417 2.37463ZM19.3028 9.81206C20.1747 9.81206 20.9834 9.365 21.3505 8.65667H21.3791V9.74238H22.6639V5.23697C22.6639 3.93063 21.6315 3.08877 20.0427 3.08877C18.5687 3.08877 17.4789 3.94224 17.4388 5.11504H18.6891C18.7924 4.55767 19.3028 4.1919 20.0026 4.1919C20.8515 4.1919 21.3275 4.59251 21.3275 5.32986V5.82917L19.5954 5.93368C17.9836 6.03238 17.1118 6.70007 17.1118 7.86126C17.1118 9.03406 18.0123 9.81206 19.3028 9.81206ZM19.6756 8.73796C18.9357 8.73796 18.4654 8.37799 18.4654 7.82643C18.4654 7.25744 18.9185 6.9265 19.7845 6.87425L21.3274 6.77555V7.28647C21.3274 8.13414 20.6162 8.73796 19.6756 8.73796ZM26.9254 10.0966C26.3691 11.6816 25.7324 12.2041 24.3788 12.2041C24.2756 12.2041 23.9314 12.1925 23.8511 12.1693V11.0836C23.9372 11.0952 24.1494 11.1068 24.2584 11.1068C24.8721 11.1068 25.2162 10.8455 25.4284 10.1662L25.5546 9.76562L23.203 3.17586H24.6541L26.2888 8.52314H26.3174L27.9521 3.17586H29.3631L26.9254 10.0966ZM11.8578 1.87532H13.4581C14.6625 1.87532 15.3508 2.52559 15.3508 3.66936C15.3508 4.81313 14.6625 5.4692 13.4523 5.4692H11.8578V1.87532Z" fill="#3A3A3A"/>
</svg>
