<svg width="468" height="102" viewBox="0 0 468 102" fill="none" xmlns="http://www.w3.org/2000/svg">
<path d="M151.546 101.664C139.395 101.664 131.457 96.7628 127.731 86.9612L139.517 80.8858C140.246 83.559 141.745 85.7056 144.013 87.3257C146.281 88.8648 149.156 89.6344 152.64 89.6344C159.201 89.6344 162.846 87.4877 163.575 83.1945C163.899 81.1693 163.008 79.5492 160.902 78.3342C158.877 77.0381 156.325 75.9445 153.247 75.0535C150.169 74.0814 147.091 72.9878 144.013 71.7728C141.016 70.4767 138.626 68.4516 136.844 65.6974C135.062 62.8622 134.535 59.298 135.264 55.0048C136.236 49.7394 138.99 45.5677 143.527 42.4895C148.063 39.3303 153.288 37.7507 159.201 37.7507C164.385 37.7507 168.841 38.8848 172.567 41.1529C176.374 43.34 179.209 46.4182 181.072 50.3875L169.286 56.3413C167.828 51.8051 164.223 49.5369 158.472 49.5369C156.042 49.5369 153.855 50.104 151.911 51.238C149.967 52.2911 148.792 53.9112 148.387 56.0983C147.982 58.2044 148.792 59.9056 150.817 61.2016C152.923 62.4977 155.515 63.5913 158.594 64.4823C161.753 65.2924 164.831 66.3049 167.828 67.52C170.906 68.7351 173.336 70.7602 175.119 73.5954C176.901 76.4306 177.427 80.0353 176.698 84.4095C175.726 89.9989 172.931 94.2921 168.314 97.2893C163.778 100.205 158.189 101.664 151.546 101.664ZM216.322 37.7507C225.394 37.7507 232.442 40.8694 237.464 47.1068C242.567 53.3442 244.269 60.9181 242.567 69.8287C241.838 72.7448 241.352 74.5674 241.109 75.2965H192.749C192.83 79.9948 194.37 83.559 197.367 85.9891C200.364 88.4193 204.293 89.6344 209.153 89.6344C216.362 89.6344 222.073 87.0827 226.286 81.9794L235.885 89.2698C229.242 97.5323 219.967 101.664 208.059 101.664C198.258 101.664 190.765 98.4639 185.581 92.0645C180.396 85.6651 178.574 77.8076 180.113 68.4921C181.652 59.5815 185.824 52.2506 192.628 46.4992C199.432 40.6669 207.33 37.7507 216.322 37.7507ZM194.572 64.4823H230.174C230.255 59.46 228.918 55.7338 226.164 53.3037C223.491 50.8735 219.927 49.6584 215.471 49.6584C210.692 49.6584 206.439 50.995 202.713 53.6682C199.068 56.2603 196.354 59.8651 194.572 64.4823ZM284.619 37.7507C291.585 37.7507 296.891 40.0189 300.536 44.5551C304.262 49.0104 305.477 55.0858 304.181 62.7812L297.62 100.084H284.497L290.815 64.1178C291.625 59.5005 291.018 56.0173 288.993 53.6682C287.049 51.238 283.93 50.023 279.637 50.023C275.262 50.023 271.415 51.3595 268.094 54.0327C264.772 56.6249 262.545 60.5941 261.411 65.9404L255.457 100.084H242.334L253.027 39.3303H266.149L264.813 46.6207C269.916 40.7074 276.518 37.7507 284.619 37.7507ZM368.742 15.0288H381.865L366.92 100.084H353.797L355.134 92.7935C349.382 98.7069 341.889 101.664 332.655 101.664C323.825 101.664 317.021 98.3424 312.241 91.7C307.543 84.9766 306.004 77.2001 307.624 68.3706C309.244 59.298 313.254 51.9266 319.653 46.2562C326.134 40.5859 333.627 37.7507 342.132 37.7507C351.691 37.7507 358.536 41.5984 362.667 49.2939L368.742 15.0288ZM336.664 89.1483C341.849 89.1483 346.507 87.5687 350.638 84.4095C354.769 81.1693 357.483 76.9571 358.779 71.7728L359.386 68.2491C359.953 62.6597 358.657 58.2855 355.498 55.1263C352.339 51.8861 348.167 50.266 342.983 50.266C337.718 50.266 332.938 51.9671 328.645 55.3693C324.433 58.7715 321.8 63.4293 320.747 69.3426C319.775 75.013 320.788 79.7518 323.785 83.559C326.863 87.2852 331.156 89.1483 336.664 89.1483ZM419.27 30.2173C416.92 30.2173 415.057 29.4072 413.68 27.7871C412.384 26.086 411.939 24.1014 412.344 21.8332C412.749 19.5651 413.883 17.621 415.746 16.0009C417.609 14.2998 419.715 13.4492 422.064 13.4492C424.413 13.4492 426.276 14.2593 427.654 15.8794C429.031 17.4995 429.517 19.4841 429.112 21.8332C428.707 24.1014 427.573 26.086 425.709 27.7871C423.846 29.4072 421.7 30.2173 419.27 30.2173ZM400.436 100.084L411.129 39.3303H424.251L413.559 100.084H400.436ZM450.059 51.9671L444.956 81.1288C444.551 83.64 444.835 85.4626 445.807 86.5967C446.779 87.7307 448.358 88.3383 450.545 88.4193C452.813 88.5003 455.568 88.4598 458.808 88.2978L456.742 100.084C447.103 101.299 440.177 100.408 435.964 97.4108C431.833 94.3326 430.456 88.9053 431.833 81.1288L436.937 51.9671H425.758L428.066 39.3303H439.245L441.554 26.2075L455.284 22.3193L452.246 39.3303H467.435L465.126 51.9671H450.059Z" fill="black"/>
<path d="M65.709 33.9043L65.748 33.9404H67.8291C77.4701 33.9404 86.1243 38.1598 92.0508 44.8506L29.4492 97.2305C28.9737 97.6656 28.5518 98.1382 28.1807 98.6367H0L33.1992 66.2891H32.3477C14.4825 66.2888 8.6628e-05 51.8057 0 33.9404H0.00976562C0.00352917 33.6759 2.17843e-06 33.4106 0 33.1445C0 14.8394 14.8394 0 33.1445 0H100.178L65.709 33.9043ZM95.6729 49.8184C98.533 54.643 100.178 60.2737 100.178 66.2891L100.175 66.707C99.9508 84.3797 85.5549 98.6367 67.8291 98.6367H54.1328L95.6729 49.8184Z" fill="#0F87FF"/>
<circle cx="105.294" cy="37.2444" r="8.91135" fill="#0F87FF"/>
</svg>
