<svg width="468" height="102" viewBox="0 0 468 102" fill="none" xmlns="http://www.w3.org/2000/svg">
<path d="M151.546 101.663C139.395 101.663 131.457 96.7618 127.731 86.9602L139.517 80.8848C140.246 83.558 141.745 85.7046 144.013 87.3247C146.281 88.8638 149.156 89.6334 152.64 89.6334C159.201 89.6334 162.846 87.4867 163.575 83.1935C163.899 81.1684 163.008 79.5483 160.902 78.3332C158.877 77.0371 156.325 75.9435 153.247 75.0525C150.169 74.0804 147.091 72.9869 144.013 71.7718C141.016 70.4757 138.626 68.4506 136.844 65.6964C135.062 62.8613 134.535 59.297 135.264 55.0038C136.236 49.7385 138.99 45.5667 143.527 42.4885C148.063 39.3293 153.288 37.7497 159.201 37.7497C164.385 37.7497 168.841 38.8838 172.567 41.1519C176.374 43.3391 179.209 46.4173 181.072 50.3865L169.286 56.3404C167.828 51.8041 164.223 49.536 158.472 49.536C156.042 49.536 153.855 50.103 151.911 51.2371C149.967 52.2901 148.792 53.9102 148.387 56.0973C147.982 58.2035 148.792 59.9046 150.817 61.2007C152.923 62.4967 155.515 63.5903 158.594 64.4814C161.753 65.2914 164.831 66.304 167.828 67.519C170.906 68.7341 173.336 70.7592 175.119 73.5944C176.901 76.4296 177.427 80.0343 176.698 84.4086C175.726 89.9979 172.931 94.2912 168.314 97.2883C163.778 100.205 158.189 101.663 151.546 101.663ZM216.322 37.7497C225.394 37.7497 232.442 40.8684 237.464 47.1058C242.567 53.3432 244.269 60.9171 242.567 69.8277C241.838 72.7439 241.352 74.5665 241.109 75.2955H192.749C192.83 79.9938 194.37 83.558 197.367 85.9882C200.364 88.4183 204.293 89.6334 209.153 89.6334C216.362 89.6334 222.073 87.0817 226.286 81.9784L235.885 89.2689C229.242 97.5314 219.967 101.663 208.059 101.663C198.258 101.663 190.765 98.4629 185.581 92.0635C180.396 85.6641 178.574 77.8067 180.113 68.4911C181.652 59.5806 185.824 52.2496 192.628 46.4983C199.432 40.6659 207.33 37.7497 216.322 37.7497ZM194.572 64.4814H230.174C230.255 59.459 228.918 55.7328 226.164 53.3027C223.491 50.8725 219.927 49.6575 215.471 49.6575C210.692 49.6575 206.439 50.994 202.713 53.6672C199.068 56.2594 196.354 59.8641 194.572 64.4814ZM284.619 37.7497C291.585 37.7497 296.891 40.0179 300.536 44.5541C304.262 49.0094 305.477 55.0848 304.181 62.7803L297.62 100.083H284.497L290.815 64.1168C291.625 59.4996 291.018 56.0163 288.993 53.6672C287.049 51.2371 283.93 50.022 279.637 50.022C275.262 50.022 271.415 51.3586 268.094 54.0317C264.772 56.6239 262.545 60.5931 261.411 65.9394L255.457 100.083H242.334L253.027 39.3293H266.149L264.813 46.6198C269.916 40.7064 276.518 37.7497 284.619 37.7497ZM368.742 15.0279H381.865L366.92 100.083H353.797L355.134 92.7926C349.382 98.7059 341.889 101.663 332.655 101.663C323.825 101.663 317.021 98.3414 312.241 91.699C307.543 84.9756 306.004 77.1991 307.624 68.3696C309.244 59.297 313.254 51.9256 319.653 46.2553C326.134 40.5849 333.627 37.7497 342.132 37.7497C351.691 37.7497 358.536 41.5975 362.667 49.2929L368.742 15.0279ZM336.664 89.1473C341.849 89.1473 346.507 87.5678 350.638 84.4086C354.769 81.1684 357.483 76.9561 358.779 71.7718L359.386 68.2481C359.953 62.6587 358.657 58.2845 355.498 55.1253C352.339 51.8851 348.167 50.265 342.983 50.265C337.718 50.265 332.938 51.9661 328.645 55.3683C324.433 58.7705 321.8 63.4283 320.747 69.3416C319.775 75.012 320.788 79.7508 323.785 83.558C326.863 87.2842 331.156 89.1473 336.664 89.1473ZM419.27 30.2163C416.92 30.2163 415.057 29.4062 413.68 27.7861C412.384 26.085 411.939 24.1004 412.344 21.8323C412.749 19.5641 413.883 17.62 415.746 15.9999C417.609 14.2988 419.715 13.4483 422.064 13.4483C424.413 13.4483 426.276 14.2583 427.654 15.8784C429.031 17.4985 429.517 19.4831 429.112 21.8323C428.707 24.1004 427.573 26.085 425.709 27.7861C423.846 29.4062 421.7 30.2163 419.27 30.2163ZM400.436 100.083L411.129 39.3293H424.251L413.559 100.083H400.436ZM450.059 51.9661L444.956 81.1279C444.551 83.639 444.835 85.4616 445.807 86.5957C446.779 87.7298 448.358 88.3373 450.545 88.4183C452.813 88.4993 455.568 88.4588 458.808 88.2968L456.742 100.083C447.103 101.298 440.177 100.407 435.964 97.4098C431.833 94.3317 430.456 88.9043 431.833 81.1279L436.937 51.9661H425.758L428.066 39.3293H439.245L441.554 26.2065L455.284 22.3183L452.246 39.3293H467.435L465.126 51.9661H450.059Z" fill="black"/>
<path d="M65.709 33.9043L65.748 33.9404H67.8291C77.47 33.9404 86.1243 38.1599 92.0508 44.8506L29.4492 97.2314C28.9738 97.6665 28.5517 98.1383 28.1807 98.6367H0L33.1992 66.2891H32.3477C14.4825 66.2888 8.6628e-05 51.8057 0 33.9404H0.00976562C0.00353191 33.6759 3.93421e-07 33.4106 0 33.1445C4.34292e-05 14.8394 14.8394 0 33.1445 0H100.178L65.709 33.9043ZM95.6729 49.8184C98.5331 54.6431 100.178 60.2736 100.178 66.2891L100.175 66.707C99.9509 84.3798 85.555 98.6367 67.8291 98.6367H54.1338L95.6729 49.8184Z" fill="black"/>
<circle cx="105.294" cy="37.2444" r="8.91135" fill="black"/>
</svg>
