<svg width="20" height="20" viewBox="0 0 20 20" fill="none" xmlns="http://www.w3.org/2000/svg">
<g clip-path="url(#clip0_358_6497)">
<path d="M15.75 5.83203C16.5037 7.08302 16.8258 8.54689 16.6667 9.9987V10.832C16.6657 11.7094 16.8956 12.5716 17.3333 13.332" stroke="#424242" stroke-width="1.5" stroke-linecap="round" stroke-linejoin="round"/>
<path d="M6.66663 9.16536C6.66663 8.28131 7.01782 7.43346 7.64294 6.80834C8.26806 6.18322 9.1159 5.83203 9.99996 5.83203C10.884 5.83203 11.7319 6.18322 12.357 6.80834C12.9821 7.43346 13.3333 8.28131 13.3333 9.16536V9.9987C13.3333 11.8018 13.9181 13.5562 15 14.9987" stroke="#424242" stroke-width="1.5" stroke-linecap="round" stroke-linejoin="round"/>
<path d="M10 9.16797V10.8346C9.99735 13.2175 10.7244 15.544 12.0833 17.5013" stroke="#424242" stroke-width="1.5" stroke-linecap="round" stroke-linejoin="round"/>
<path d="M6.66666 12.5C6.87058 14.2415 7.37827 15.9338 8.16666 17.5" stroke="#424242" stroke-width="1.5" stroke-linecap="round" stroke-linejoin="round"/>
<path d="M4.08336 15.832C3.52107 13.9406 3.26781 11.9708 3.33336 9.99865V9.16531C3.33017 7.99353 3.63588 6.8416 4.2197 5.82561C4.80352 4.80962 5.64481 3.96545 6.65881 3.37818C7.67281 2.7909 8.82369 2.48127 9.99548 2.48047C11.1673 2.47968 12.3186 2.78775 13.3334 3.37365" stroke="#424242" stroke-width="1.5" stroke-linecap="round" stroke-linejoin="round"/>
</g>
<defs>
<clipPath id="clip0_358_6497">
<rect width="20" height="20" fill="white"/>
</clipPath>
</defs>
</svg>
