<svg width="24" height="24" viewBox="0 0 24 24" fill="none" xmlns="http://www.w3.org/2000/svg">
<g clip-path="url(#clip0_1622_4210)">
<path d="M14.6389 10.258L19.4689 8.96401C19.7244 8.89023 19.992 8.86813 20.2561 8.89901C20.5202 8.92989 20.7755 9.01312 21.0071 9.14384C21.2386 9.27456 21.4418 9.45014 21.6047 9.66032C21.7676 9.87049 21.8869 10.111 21.9557 10.3679C22.0245 10.6247 22.0415 10.8927 22.0055 11.1562C21.9695 11.4196 21.8813 11.6733 21.7461 11.9022C21.6109 12.1312 21.4315 12.3309 21.2182 12.4897C21.0049 12.6485 20.7621 12.7632 20.5039 12.827L6.01494 16.71L1.56494 11.69L4.46194 10.914L6.91194 12.328L9.80894 11.552L6.06594 5.30801L8.96394 4.53101L14.6389 10.258Z" stroke="#4285F4" stroke-width="2" stroke-linecap="round" stroke-linejoin="round"/>
<path d="M3 21H21" stroke="#4285F4" stroke-width="2" stroke-linecap="round" stroke-linejoin="round"/>
</g>
<defs>
<clipPath id="clip0_1622_4210">
<rect width="24" height="24" fill="white"/>
</clipPath>
</defs>
</svg>
