<svg width="20" height="20" viewBox="0 0 20 20" fill="none" xmlns="http://www.w3.org/2000/svg">
<g clip-path="url(#clip0_1622_4244)">
<path d="M8.33337 10.8334C8.33337 11.2754 8.50897 11.6994 8.82153 12.0119C9.13409 12.3245 9.55801 12.5001 10 12.5001C10.4421 12.5001 10.866 12.3245 11.1786 12.0119C11.4911 11.6994 11.6667 11.2754 11.6667 10.8334C11.6667 10.3914 11.4911 9.96746 11.1786 9.6549C10.866 9.34234 10.4421 9.16675 10 9.16675C9.55801 9.16675 9.13409 9.34234 8.82153 9.6549C8.50897 9.96746 8.33337 10.3914 8.33337 10.8334Z" stroke="#424242" stroke-width="1.5" stroke-linecap="round" stroke-linejoin="round"/>
<path d="M6.66663 17.5V16.6667C6.66663 16.2246 6.84222 15.8007 7.15478 15.4882C7.46734 15.1756 7.89127 15 8.33329 15H11.6666C12.1087 15 12.5326 15.1756 12.8451 15.4882C13.1577 15.8007 13.3333 16.2246 13.3333 16.6667V17.5" stroke="#424242" stroke-width="1.5" stroke-linecap="round" stroke-linejoin="round"/>
<path d="M12.5 4.16667C12.5 4.60869 12.6756 5.03262 12.9882 5.34518C13.3007 5.65774 13.7246 5.83333 14.1667 5.83333C14.6087 5.83333 15.0326 5.65774 15.3452 5.34518C15.6577 5.03262 15.8333 4.60869 15.8333 4.16667C15.8333 3.72464 15.6577 3.30072 15.3452 2.98816C15.0326 2.67559 14.6087 2.5 14.1667 2.5C13.7246 2.5 13.3007 2.67559 12.9882 2.98816C12.6756 3.30072 12.5 3.72464 12.5 4.16667Z" stroke="#424242" stroke-width="1.5" stroke-linecap="round" stroke-linejoin="round"/>
<path d="M14.1666 8.33325H15.8333C16.2753 8.33325 16.6992 8.50885 17.0118 8.82141C17.3244 9.13397 17.5 9.55789 17.5 9.99992V10.8333" stroke="#424242" stroke-width="1.5" stroke-linecap="round" stroke-linejoin="round"/>
<path d="M4.16663 4.16667C4.16663 4.60869 4.34222 5.03262 4.65478 5.34518C4.96734 5.65774 5.39127 5.83333 5.83329 5.83333C6.27532 5.83333 6.69924 5.65774 7.0118 5.34518C7.32436 5.03262 7.49996 4.60869 7.49996 4.16667C7.49996 3.72464 7.32436 3.30072 7.0118 2.98816C6.69924 2.67559 6.27532 2.5 5.83329 2.5C5.39127 2.5 4.96734 2.67559 4.65478 2.98816C4.34222 3.30072 4.16663 3.72464 4.16663 4.16667Z" stroke="#424242" stroke-width="1.5" stroke-linecap="round" stroke-linejoin="round"/>
<path d="M2.5 10.8333V9.99992C2.5 9.55789 2.67559 9.13397 2.98816 8.82141C3.30072 8.50885 3.72464 8.33325 4.16667 8.33325H5.83333" stroke="#424242" stroke-width="1.5" stroke-linecap="round" stroke-linejoin="round"/>
</g>
<defs>
<clipPath id="clip0_1622_4244">
<rect width="20" height="20" fill="white"/>
</clipPath>
</defs>
</svg>
