<svg width="20" height="20" viewBox="0 0 20 20" fill="none" xmlns="http://www.w3.org/2000/svg">
<g clip-path="url(#clip0_281_3164)">
<path d="M12.5 3.33337L17.5 5.00004V9.16671H15V15.8334C15 16.0544 14.9122 16.2663 14.7559 16.4226C14.5996 16.5789 14.3877 16.6667 14.1667 16.6667H5.83333C5.61232 16.6667 5.40036 16.5789 5.24408 16.4226C5.0878 16.2663 5 16.0544 5 15.8334V9.16671H2.5V5.00004L7.5 3.33337C7.5 3.99642 7.76339 4.6323 8.23223 5.10114C8.70107 5.56998 9.33696 5.83337 10 5.83337C10.663 5.83337 11.2989 5.56998 11.7678 5.10114C12.2366 4.6323 12.5 3.99642 12.5 3.33337Z" stroke="#424242" stroke-width="1.5" stroke-linecap="round" stroke-linejoin="round"/>
<path d="M8.75 9.16663H10.8333L9.58333 13.3333" stroke="#424242" stroke-width="1.5" stroke-linecap="round" stroke-linejoin="round"/>
</g>
<defs>
<clipPath id="clip0_281_3164">
<rect width="20" height="20" fill="white"/>
</clipPath>
</defs>
</svg>
