<svg width="20" height="22" viewBox="0 0 20 22" fill="none" xmlns="http://www.w3.org/2000/svg">
<path d="M18.75 8.75H0.75M13.75 0.75V4.75M5.75 0.75V4.75M5.55 20.75H13.95C15.6302 20.75 16.4702 20.75 17.112 20.423C17.6765 20.1354 18.1354 19.6765 18.423 19.112C18.75 18.4702 18.75 17.6302 18.75 15.95V7.55C18.75 5.86984 18.75 5.02976 18.423 4.38803C18.1354 3.82354 17.6765 3.3646 17.112 3.07698C16.4702 2.75 15.6302 2.75 13.95 2.75H5.55C3.86984 2.75 3.02976 2.75 2.38803 3.07698C1.82354 3.3646 1.3646 3.82354 1.07698 4.38803C0.75 5.02976 0.75 5.86984 0.75 7.55V15.95C0.75 17.6302 0.75 18.4702 1.07698 19.112C1.3646 19.6765 1.82354 20.1354 2.38803 20.423C3.02976 20.75 3.86984 20.75 5.55 20.75Z" stroke="#424242" stroke-width="1.5" stroke-linecap="round" stroke-linejoin="round"/>
</svg>
