<svg width="14" height="14" viewBox="0 0 14 14" fill="none" xmlns="http://www.w3.org/2000/svg">
<path d="M12.8139 0.600037L8.48058 12.6C8.45133 12.6639 8.40437 12.718 8.34528 12.7559C8.28619 12.7938 8.21746 12.814 8.14725 12.814C8.07704 12.814 8.0083 12.7938 7.94921 12.7559C7.89012 12.718 7.84316 12.6639 7.81391 12.6L5.48058 7.93337L0.813913 5.60004C0.750085 5.57079 0.695997 5.52383 0.658077 5.46474C0.620156 5.40565 0.599998 5.33691 0.599998 5.2667C0.599998 5.19649 0.620156 5.12776 0.658077 5.06867C0.695997 5.00958 0.750085 4.96262 0.813913 4.93337L12.8139 0.600037Z" stroke="#424242" stroke-width="1.2" stroke-linecap="round" stroke-linejoin="round"/>
</svg>
