<svg width="20" height="20" viewBox="0 0 20 20" fill="none" xmlns="http://www.w3.org/2000/svg">
<g clip-path="url(#clip0_358_10669)">
<path d="M5.83334 10H8.33334V13.3333H5.83334V10Z" stroke="#424242" stroke-width="1.5" stroke-linecap="round" stroke-linejoin="round"/>
<path d="M8.33333 5H3.33333C3.11232 5 2.90036 5.0878 2.74408 5.24408C2.5878 5.40036 2.5 5.61232 2.5 5.83333V15.8333C2.5 16.0543 2.5878 16.2663 2.74408 16.4226C2.90036 16.5789 3.11232 16.6667 3.33333 16.6667H16.6667C16.8877 16.6667 17.0996 16.5789 17.2559 16.4226C17.4122 16.2663 17.5 16.0543 17.5 15.8333V5.83333C17.5 5.61232 17.4122 5.40036 17.2559 5.24408C17.0996 5.0878 16.8877 5 16.6667 5H11.6667" stroke="#424242" stroke-width="1.5" stroke-linecap="round" stroke-linejoin="round"/>
<path d="M8.33334 3.33333C8.33334 3.11232 8.42113 2.90036 8.57741 2.74408C8.73369 2.5878 8.94566 2.5 9.16667 2.5H10.8333C11.0543 2.5 11.2663 2.5878 11.4226 2.74408C11.5789 2.90036 11.6667 3.11232 11.6667 3.33333V5.83333C11.6667 6.05435 11.5789 6.26631 11.4226 6.42259C11.2663 6.57887 11.0543 6.66667 10.8333 6.66667H9.16667C8.94566 6.66667 8.73369 6.57887 8.57741 6.42259C8.42113 6.26631 8.33334 6.05435 8.33334 5.83333V3.33333Z" stroke="#424242" stroke-width="1.5" stroke-linecap="round" stroke-linejoin="round"/>
<path d="M11.6666 13.332H13.3333" stroke="#424242" stroke-width="1.5" stroke-linecap="round" stroke-linejoin="round"/>
<path d="M11.6667 10H15" stroke="#424242" stroke-width="1.5" stroke-linecap="round" stroke-linejoin="round"/>
</g>
<defs>
<clipPath id="clip0_358_10669">
<rect width="20" height="20" fill="white"/>
</clipPath>
</defs>
</svg>
