<svg width="20" height="20" viewBox="0 0 20 20" fill="none" xmlns="http://www.w3.org/2000/svg">
<g clip-path="url(#clip0_281_6885)">
<path d="M6.66699 17.5H13.3337" stroke="#424242" stroke-width="1.5" stroke-linecap="round" stroke-linejoin="round"/>
<path d="M10 13.333V17.4997" stroke="#424242" stroke-width="1.5" stroke-linecap="round" stroke-linejoin="round"/>
<path d="M14.1667 4.16699L15 9.16699C15 11.677 12.7617 13.3337 10 13.3337C7.23833 13.3337 5 11.677 5 9.16699L5.83333 4.16699" stroke="#424242" stroke-width="1.5" stroke-linecap="round" stroke-linejoin="round"/>
<path d="M5.83301 4.16667C5.83301 4.60869 6.27199 5.03262 7.0534 5.34518C7.8348 5.65774 8.89461 5.83333 9.99967 5.83333C11.1047 5.83333 12.1646 5.65774 12.946 5.34518C13.7274 5.03262 14.1663 4.60869 14.1663 4.16667C14.1663 3.72464 13.7274 3.30072 12.946 2.98816C12.1646 2.67559 11.1047 2.5 9.99967 2.5C8.89461 2.5 7.8348 2.67559 7.0534 2.98816C6.27199 3.30072 5.83301 3.72464 5.83301 4.16667Z" stroke="#424242" stroke-width="1.5" stroke-linecap="round" stroke-linejoin="round"/>
</g>
<defs>
<clipPath id="clip0_281_6885">
<rect width="20" height="20" fill="white"/>
</clipPath>
</defs>
</svg>
