<svg width="30" height="12" viewBox="0 0 30 12" fill="none" xmlns="http://www.w3.org/2000/svg">
<path d="M26.3534 7.71438H26.3749L28.0838 3.44094H29.286L25.5917 12.0093H24.452L25.8251 9.01223L23.4012 3.44094H24.6024L26.3534 7.71438ZM20.5721 3.2466C21.3892 3.2466 22.0349 3.4687 22.5087 3.90578C22.9823 4.34282 23.2156 4.95321 23.2157 5.72317V9.39309H22.1581V8.56789H22.1102C21.6502 9.24773 21.0461 9.58737 20.284 9.58742C19.6386 9.58742 19.0887 9.39391 18.6561 9.00539C18.2305 8.64469 17.9901 8.11018 18.0038 7.54836C18.0038 6.93089 18.2381 6.44537 18.6981 6.07766C19.1581 5.70995 19.7758 5.52883 20.5448 5.52883C21.2039 5.52883 21.7392 5.65433 22.1649 5.89016V5.63332C22.1649 5.25174 22.0002 4.8909 21.7118 4.64113C21.4165 4.37757 21.0386 4.23195 20.6473 4.23195C20.0296 4.23209 19.5424 4.49583 19.1854 5.02297L18.2098 4.40481C18.7316 3.63478 19.5217 3.24664 20.5721 3.2466ZM15.3329 0.693868C16.0401 0.679993 16.7271 0.9502 17.2284 1.44973C18.2308 2.39329 18.2921 3.98165 17.3514 5.00149L17.2284 5.12649C16.7134 5.61908 16.0813 5.86867 15.3329 5.86867H13.5067V9.39309H12.4012V0.693868H15.3329ZM20.7167 6.43117C20.2704 6.4312 19.8928 6.5423 19.5907 6.75735C19.2954 6.97241 19.1444 7.2428 19.1444 7.56887C19.1444 7.86025 19.282 8.13088 19.5087 8.29738C19.7558 8.49148 20.0581 8.59533 20.3671 8.5884C20.8339 8.58828 21.2797 8.4008 21.6092 8.06789C21.9732 7.72101 22.159 7.31211 22.159 6.84035C21.8157 6.56284 21.3347 6.42424 20.7167 6.43117ZM13.5067 4.80031H15.3612C15.7731 4.81415 16.1715 4.64826 16.453 4.35012C17.0298 3.74654 17.0162 2.7747 16.4188 2.19192C16.1373 1.91443 15.7595 1.76226 15.3612 1.76223H13.5067V4.80031Z" fill="#3C4043"/>
<path d="M9.69018 5.10668C9.69018 4.76673 9.66271 4.42677 9.60778 4.09375H4.9455V6.01554H7.61652C7.50666 6.63302 7.14961 7.18805 6.62776 7.53494V8.78376H8.22077C9.1546 7.91653 9.69018 6.63302 9.69018 5.10668Z" fill="#4285F4"/>
<path d="M4.94571 9.99098C6.27779 9.99098 7.40388 9.54695 8.22098 8.78378L6.62798 7.53496C6.18166 7.84023 5.61175 8.01368 4.94571 8.01368C3.65483 8.01368 2.56307 7.13257 2.17169 5.95312H0.530617V7.24357C1.36832 8.92948 3.07805 9.99098 4.94571 9.99098Z" fill="#34A853"/>
<path d="M2.17186 5.95227C1.96583 5.3348 1.96583 4.66183 2.17186 4.03742V2.75391H0.530529C-0.176823 4.1623 -0.176823 5.82739 0.530529 7.23578L2.17186 5.95227Z" fill="#FBBC04"/>
<path d="M4.94571 1.9776C5.65295 1.96372 6.33272 2.2343 6.84084 2.72689L8.25531 1.29769C7.35582 0.451265 6.1748 -0.0135738 4.94571 0.000301944C3.07805 0.000301944 1.36832 1.06874 0.530617 2.75464L2.17169 4.04509C2.56307 2.85871 3.65483 1.9776 4.94571 1.9776Z" fill="#EA4335"/>
</svg>
