<svg width="24" height="24" viewBox="0 0 24 24" fill="none" xmlns="http://www.w3.org/2000/svg">
<path fill-rule="evenodd" clip-rule="evenodd" d="M5.02332 11.9999C5.02332 11.2204 5.1556 10.4732 5.39169 9.77224L1.25918 6.68384C0.453773 8.28422 0 10.0875 0 11.9999C0 13.9107 0.453215 15.7129 1.2575 17.3122L5.38779 14.2177C5.15392 13.5201 5.02332 12.7755 5.02332 11.9999Z" fill="#FBBC05"/>
<path fill-rule="evenodd" clip-rule="evenodd" d="M12.279 4.90915C14.0092 4.90915 15.572 5.50916 16.8 6.49099L20.3721 3.00004C18.1953 1.14547 15.4046 0 12.279 0C7.42646 0 3.25599 2.71585 1.25894 6.68408L5.39146 9.77248C6.34366 6.94372 9.05792 4.90915 12.279 4.90915Z" fill="#EB4335"/>
<path fill-rule="evenodd" clip-rule="evenodd" d="M12.279 19.0909C9.05792 19.0909 6.34366 17.0563 5.39146 14.2275L1.25894 17.3154C3.25599 21.2842 7.42646 24 12.279 24C15.274 24 18.1334 22.9593 20.2795 21.0093L16.3568 18.0414C15.25 18.7238 13.8563 19.0909 12.279 19.0909Z" fill="#34A853"/>
<path fill-rule="evenodd" clip-rule="evenodd" d="M23.9991 12.0004C23.9991 11.2913 23.8874 10.5277 23.72 9.8186H12.278V14.455H18.8641C18.5348 16.0358 17.6384 17.2511 16.3558 18.042L20.2785 21.0098C22.5328 18.9622 23.9991 15.912 23.9991 12.0004Z" fill="#4285F4"/>
</svg>
