<svg width="20" height="20" viewBox="0 0 20 20" fill="none" xmlns="http://www.w3.org/2000/svg">
<g clip-path="url(#clip0_701_29057)">
<path d="M3.33301 11.6667V9.16667C3.33301 7.39856 4.03539 5.70286 5.28563 4.45262C6.53587 3.20238 8.23156 2.5 9.99967 2.5C11.7678 2.5 13.4635 3.20238 14.7137 4.45262C15.964 5.70286 16.6663 7.39856 16.6663 9.16667V11.6667" stroke="#424242" stroke-width="1.5" stroke-linecap="round" stroke-linejoin="round"/>
<path d="M15 15.834C15 17.2148 12.7617 18.334 10 18.334" stroke="#424242" stroke-width="1.5" stroke-linecap="round" stroke-linejoin="round"/>
<path d="M3.33301 11.6667C3.33301 11.2246 3.5086 10.8007 3.82116 10.4882C4.13372 10.1756 4.55765 10 4.99967 10H5.83301C6.27504 10 6.69896 10.1756 7.01152 10.4882C7.32408 10.8007 7.49967 11.2246 7.49967 11.6667V14.1667C7.49967 14.6087 7.32408 15.0326 7.01152 15.3452C6.69896 15.6577 6.27504 15.8333 5.83301 15.8333H4.99967C4.55765 15.8333 4.13372 15.6577 3.82116 15.3452C3.5086 15.0326 3.33301 14.6087 3.33301 14.1667V11.6667Z" stroke="#424242" stroke-width="1.5" stroke-linecap="round" stroke-linejoin="round"/>
<path d="M12.5 11.6667C12.5 11.2246 12.6756 10.8007 12.9882 10.4882C13.3007 10.1756 13.7246 10 14.1667 10H15C15.442 10 15.866 10.1756 16.1785 10.4882C16.4911 10.8007 16.6667 11.2246 16.6667 11.6667V14.1667C16.6667 14.6087 16.4911 15.0326 16.1785 15.3452C15.866 15.6577 15.442 15.8333 15 15.8333H14.1667C13.7246 15.8333 13.3007 15.6577 12.9882 15.3452C12.6756 15.0326 12.5 14.6087 12.5 14.1667V11.6667Z" stroke="#424242" stroke-width="1.5" stroke-linecap="round" stroke-linejoin="round"/>
</g>
<defs>
<clipPath id="clip0_701_29057">
<rect width="20" height="20" fill="white"/>
</clipPath>
</defs>
</svg>
