<svg width="132" height="24" viewBox="0 0 132 24" fill="none" xmlns="http://www.w3.org/2000/svg">
<g clip-path="url(#clip0_678_6569)">
<path d="M11.9856 24C18.6132 24 23.9856 18.6276 23.9856 12V3.6C23.9856 2.64522 23.6063 1.72955 22.9312 1.05442C22.2561 0.379285 21.3404 0 20.3856 0L12.5856 0V5.2644C12.5856 6.4656 12.6588 7.71 13.2888 8.7324C13.7398 9.46513 14.3432 10.0923 15.0579 10.5713C15.7726 11.0503 16.582 11.37 17.4312 11.5086L17.661 11.5458C17.7557 11.5782 17.838 11.6394 17.8962 11.7208C17.9544 11.8023 17.9857 11.8999 17.9857 12C17.9857 12.1001 17.9544 12.1977 17.8962 12.2792C17.838 12.3606 17.7557 12.4218 17.661 12.4542L17.4312 12.4914C16.1905 12.6941 15.0448 13.2813 14.1559 14.1703C13.2669 15.0592 12.6797 16.2049 12.477 17.4456L12.4398 17.6754C12.4074 17.7701 12.3462 17.8524 12.2648 17.9106C12.1833 17.9688 12.0857 18.0002 11.9856 18.0002C11.8855 18.0002 11.7879 17.9688 11.7064 17.9106C11.625 17.8524 11.5638 17.7701 11.5314 17.6754L11.4942 17.4456C11.3555 16.5965 11.0358 15.7871 10.5568 15.0723C10.0778 14.3576 9.4507 13.7542 8.718 13.3032C7.6956 12.6732 6.4512 12.6 5.25 12.6H-3.8147e-06C0.313796 18.9486 5.5596 24 11.9856 24Z" fill="#0E1534"/>
<path d="M0 11.4H5.2644C6.4656 11.4 7.71 11.3268 8.7324 10.6968C9.53161 10.2044 10.2044 9.53161 10.6968 8.7324C11.3268 7.71 11.4 6.4656 11.4 5.2644V0H3.6C2.64522 0 1.72955 0.379285 1.05442 1.05442C0.379285 1.72955 0 2.64522 0 3.6L0 11.4ZM27.873 1.2C27.873 1.51826 27.7466 1.82348 27.5215 2.04853C27.2965 2.27357 26.9913 2.4 26.673 2.4C26.3547 2.4 26.0495 2.27357 25.8245 2.04853C25.5994 1.82348 25.473 1.51826 25.473 1.2C25.473 0.88174 25.5994 0.576516 25.8245 0.351472C26.0495 0.126428 26.3547 0 26.673 0C26.9913 0 27.2965 0.126428 27.5215 0.351472C27.7466 0.576516 27.873 0.88174 27.873 1.2ZM127.027 7.2624C130.381 7.2624 132 9.6054 132 12.3192V17.4162H128.489V12.924C128.489 11.694 128.041 10.6788 126.754 10.6788C125.467 10.6788 125.038 11.694 125.038 12.924V17.4156H121.527V12.924C121.527 11.694 121.098 10.6788 119.81 10.6788C118.523 10.6788 118.075 11.694 118.075 12.924V17.4156H114.565V12.3186C114.565 9.6048 116.183 7.2618 119.537 7.2618C121.371 7.2618 122.697 7.9842 123.302 9.1752C123.945 7.9842 125.35 7.2612 127.027 7.2612V7.2624ZM108.256 14.292C109.387 14.292 109.875 13.257 109.875 12.0264V7.6524H113.385V12.456C113.385 15.3264 111.708 17.709 108.256 17.709C104.804 17.709 103.127 15.327 103.127 12.456V7.6524H106.637V12.0264C106.637 13.2564 107.125 14.292 108.256 14.292ZM97.965 17.7282C95.7612 17.7282 94.3374 16.9668 93.4986 15.483L96.0342 14.0574C96.3852 14.682 96.9114 14.9946 97.7892 14.9946C98.511 14.9946 98.8422 14.7408 98.8422 14.4282C98.8422 13.2372 93.6936 14.448 93.6936 10.6602C93.6936 8.8242 95.2536 7.3404 97.9062 7.3404C100.227 7.3404 101.495 8.4726 102.061 9.5664L99.525 11.0112C99.3108 10.4256 98.6472 10.074 97.9842 10.074C97.4772 10.074 97.2042 10.2888 97.2042 10.5816C97.2042 11.7924 102.353 10.6794 102.353 14.3502C102.353 16.4004 100.344 17.7282 97.965 17.7282ZM85.6998 21.9072H82.1892V12.5148C82.1892 9.5268 84.432 7.3596 87.5526 7.3596C90.5952 7.3596 92.916 9.6834 92.916 12.5148C92.916 15.639 90.8484 17.709 87.7476 17.709C87.0258 17.709 86.3046 17.4942 85.6998 17.1618V21.9072ZM87.5526 14.409C88.6644 14.409 89.4054 13.5498 89.4054 12.534C89.4054 11.4996 88.6644 10.6596 87.5526 10.6596C86.4408 10.6596 85.6998 11.4996 85.6998 12.5346C85.6998 13.5498 86.4408 14.409 87.5526 14.409ZM78.6726 6.618C77.5218 6.618 76.5666 5.661 76.5666 4.509C76.5666 3.357 77.5218 2.4 78.6726 2.4C79.8234 2.4 80.7792 3.357 80.7792 4.509C80.7792 5.661 79.8234 6.618 78.6726 6.618ZM76.9176 7.6524H80.4282V17.4162H76.9176V7.6524ZM70.182 17.709C67.1394 17.709 64.8186 15.366 64.8186 12.5148C64.8186 9.6834 67.1394 7.3404 70.182 7.3404C73.2246 7.3404 75.5454 9.6834 75.5454 12.5148C75.5454 15.366 73.2246 17.709 70.182 17.709ZM70.182 14.409C71.2938 14.409 72.0348 13.5498 72.0348 12.534C72.0348 11.4996 71.2938 10.6404 70.182 10.6404C69.0702 10.6404 68.3292 11.4996 68.3292 12.534C68.3292 13.5498 69.0702 14.409 70.182 14.409ZM58.1898 22.2C55.7718 22.2 54.0162 21.126 53.1192 19.212L56.025 17.6502C56.337 18.3144 56.922 18.9978 58.131 18.9978C59.3994 18.9978 60.2376 18.1968 60.3354 16.791C59.8674 17.2014 59.1258 17.5134 58.0146 17.5134C55.3032 17.5134 53.1186 15.4242 53.1186 12.495C53.1186 9.6642 55.44 7.3596 58.4826 7.3596C61.6032 7.3596 63.846 9.5274 63.846 12.5148V16.3812C63.846 19.896 61.4076 22.2 58.1898 22.2ZM58.4238 14.214C59.4768 14.214 60.2766 13.491 60.2766 12.417C60.2766 11.3628 59.4774 10.6596 58.4238 10.6596C57.39 10.6596 56.571 11.3628 56.571 12.4176C56.571 13.4916 57.39 14.214 58.4238 14.214ZM47.1642 17.709C44.1216 17.709 41.8002 15.366 41.8002 12.5148C41.8002 9.6834 44.1216 7.3404 47.1642 7.3404C50.2062 7.3404 52.5276 9.6834 52.5276 12.5148C52.5276 15.366 50.2068 17.709 47.1642 17.709ZM47.1642 14.409C48.276 14.409 49.017 13.5498 49.017 12.534C49.017 11.4996 48.276 10.6404 47.1642 10.6404C46.0524 10.6404 45.3114 11.4996 45.3114 12.534C45.3114 13.5498 46.0524 14.409 47.1642 14.409ZM35.4078 4.236V14.0964H41.22V17.4162H34.92C32.697 17.4162 31.8 16.2444 31.8 14.3892V4.236H35.4078Z" fill="#0E1534"/>
</g>
<defs>
<clipPath id="clip0_678_6569">
<rect width="132" height="24" fill="white"/>
</clipPath>
</defs>
</svg>
