<svg width="20" height="20" viewBox="0 0 20 20" fill="none" xmlns="http://www.w3.org/2000/svg">
<g clip-path="url(#clip0_701_29109)">
<path d="M3.33301 5.83398H16.6663" stroke="#424242" stroke-width="1.5" stroke-linecap="round" stroke-linejoin="round"/>
<path d="M8.33301 9.16602V14.166" stroke="#424242" stroke-width="1.5" stroke-linecap="round" stroke-linejoin="round"/>
<path d="M11.667 9.16602V14.166" stroke="#424242" stroke-width="1.5" stroke-linecap="round" stroke-linejoin="round"/>
<path d="M4.16699 5.83398L5.00033 15.834C5.00033 16.276 5.17592 16.6999 5.48848 17.0125C5.80104 17.3251 6.22496 17.5007 6.66699 17.5007H13.3337C13.7757 17.5007 14.1996 17.3251 14.5122 17.0125C14.8247 16.6999 15.0003 16.276 15.0003 15.834L15.8337 5.83398" stroke="#424242" stroke-width="1.5" stroke-linecap="round" stroke-linejoin="round"/>
<path d="M7.5 5.83333V3.33333C7.5 3.11232 7.5878 2.90036 7.74408 2.74408C7.90036 2.5878 8.11232 2.5 8.33333 2.5H11.6667C11.8877 2.5 12.0996 2.5878 12.2559 2.74408C12.4122 2.90036 12.5 3.11232 12.5 3.33333V5.83333" stroke="#424242" stroke-width="1.5" stroke-linecap="round" stroke-linejoin="round"/>
</g>
<defs>
<clipPath id="clip0_701_29109">
<rect width="20" height="20" fill="white"/>
</clipPath>
</defs>
</svg>
