<svg width="20" height="20" viewBox="0 0 20 20" fill="none" xmlns="http://www.w3.org/2000/svg">
<g clip-path="url(#clip0_281_3974)">
<path d="M8.33268 5H5.83268C5.39065 5 4.96673 5.17559 4.65417 5.48816C4.34161 5.80072 4.16602 6.22464 4.16602 6.66667V14.1667C4.16602 14.6087 4.34161 15.0326 4.65417 15.3452C4.96673 15.6577 5.39065 15.8333 5.83268 15.8333H13.3327C13.7747 15.8333 14.1986 15.6577 14.5112 15.3452C14.8238 15.0326 14.9993 14.6087 14.9993 14.1667V11.6667" stroke="#424242" stroke-width="1.5" stroke-linecap="round" stroke-linejoin="round"/>
<path d="M11.666 5.83331C11.666 6.49635 11.9294 7.13224 12.3982 7.60108C12.8671 8.06992 13.503 8.33331 14.166 8.33331C14.8291 8.33331 15.4649 8.06992 15.9338 7.60108C16.4026 7.13224 16.666 6.49635 16.666 5.83331C16.666 5.17027 16.4026 4.53439 15.9338 4.06555C15.4649 3.59671 14.8291 3.33331 14.166 3.33331C13.503 3.33331 12.8671 3.59671 12.3982 4.06555C11.9294 4.53439 11.666 5.17027 11.666 5.83331Z" stroke="#424242" stroke-width="1.5" stroke-linecap="round" stroke-linejoin="round"/>
</g>
<defs>
<clipPath id="clip0_281_3974">
<rect width="20" height="20" fill="white"/>
</clipPath>
</defs>
</svg>
