<svg width="20" height="20" viewBox="0 0 20 20" fill="none" xmlns="http://www.w3.org/2000/svg">
<g clip-path="url(#clip0_358_10640)">
<path d="M1.66663 5.83464C1.66663 5.39261 1.84222 4.96868 2.15478 4.65612C2.46734 4.34356 2.89127 4.16797 3.33329 4.16797H16.6666C17.1087 4.16797 17.5326 4.34356 17.8451 4.65612C18.1577 4.96868 18.3333 5.39261 18.3333 5.83464V14.168C18.3333 14.61 18.1577 15.0339 17.8451 15.3465C17.5326 15.659 17.1087 15.8346 16.6666 15.8346H3.33329C2.89127 15.8346 2.46734 15.659 2.15478 15.3465C1.84222 15.0339 1.66663 14.61 1.66663 14.168V5.83464Z" stroke="#424242" stroke-width="1.5" stroke-linecap="round" stroke-linejoin="round"/>
<path d="M7.5 10C7.5 10.663 7.76339 11.2989 8.23223 11.7678C8.70107 12.2366 9.33696 12.5 10 12.5C10.663 12.5 11.2989 12.2366 11.7678 11.7678C12.2366 11.2989 12.5 10.663 12.5 10C12.5 9.33696 12.2366 8.70107 11.7678 8.23223C11.2989 7.76339 10.663 7.5 10 7.5C9.33696 7.5 8.70107 7.76339 8.23223 8.23223C7.76339 8.70107 7.5 9.33696 7.5 10Z" stroke="#424242" stroke-width="1.5" stroke-linecap="round" stroke-linejoin="round"/>
<path d="M7.5 10H1.66666" stroke="#424242" stroke-width="1.5" stroke-linecap="round" stroke-linejoin="round"/>
<path d="M12.5 10H18.3333" stroke="#424242" stroke-width="1.5" stroke-linecap="round" stroke-linejoin="round"/>
</g>
<defs>
<clipPath id="clip0_358_10640">
<rect width="20" height="20" fill="white"/>
</clipPath>
</defs>
</svg>
