<svg width="42" height="29" viewBox="0 0 42 29" fill="none" xmlns="http://www.w3.org/2000/svg">
<path d="M38.9825 0.5H3.01754C1.62714 0.5 0.5 1.62503 0.5 3.01282V25.9872C0.5 27.375 1.62714 28.5 3.01754 28.5H38.9825C40.3729 28.5 41.5 27.375 41.5 25.9872V3.01282C41.5 1.62503 40.3729 0.5 38.9825 0.5Z" fill="white" stroke="#F3F3F3"/>
<path fill-rule="evenodd" clip-rule="evenodd" d="M19.1572 14.9139L19.3388 13.7591L18.9342 13.7497H17.0022L18.3449 5.22796C18.3491 5.20215 18.3626 5.1782 18.3824 5.16116C18.4022 5.14411 18.4275 5.13477 18.4539 5.13477H21.7116C22.7932 5.13477 23.5395 5.36 23.9292 5.80462C24.1119 6.0132 24.2282 6.23122 24.2845 6.47107C24.3435 6.72278 24.3446 7.02348 24.2869 7.3903L24.2828 7.41698V7.65207L24.4655 7.75567C24.6193 7.83738 24.7415 7.93085 24.8353 8.03783C24.9916 8.21624 25.0926 8.44297 25.1353 8.71162C25.1795 8.98796 25.1649 9.31692 25.0926 9.68925C25.0093 10.1175 24.8745 10.4906 24.6925 10.7958C24.5252 11.077 24.312 11.3103 24.0587 11.491C23.817 11.6628 23.5298 11.7932 23.2051 11.8766C22.8903 11.9586 22.5316 12 22.1381 12H21.8846C21.7034 12 21.5273 12.0654 21.389 12.1825C21.2504 12.3021 21.1588 12.4655 21.1307 12.6441L21.1115 12.7481L20.7906 14.7836L20.776 14.8583C20.7722 14.882 20.7655 14.8937 20.7558 14.9017C20.7472 14.909 20.7348 14.9139 20.7225 14.9139H19.1572Z" fill="#28356A"/>
<path fill-rule="evenodd" clip-rule="evenodd" d="M24.6386 7.44531C24.6289 7.50754 24.6178 7.57109 24.6053 7.63649C24.1757 9.8444 22.7059 10.6072 20.8288 10.6072H19.873C19.6434 10.6072 19.4499 10.7739 19.4142 11.0006L18.7862 14.9877C18.763 15.1366 18.8776 15.2707 19.0276 15.2707H20.7228C20.9235 15.2707 21.094 15.1247 21.1257 14.9265L21.1423 14.8404L21.4614 12.8129L21.482 12.7017C21.5132 12.5028 21.6841 12.3568 21.8848 12.3568H22.1384C23.7808 12.3568 25.0665 11.6894 25.4423 9.75782C25.5992 8.95091 25.518 8.27719 25.1026 7.80335C24.9769 7.66055 24.821 7.54191 24.6386 7.44531Z" fill="#298FC2"/>
<path fill-rule="evenodd" clip-rule="evenodd" d="M24.1869 7.26567C24.1212 7.24649 24.0535 7.22916 23.984 7.21348C23.9142 7.19819 23.8427 7.18466 23.769 7.17278C23.5114 7.1311 23.229 7.11133 22.9265 7.11133H20.3732C20.3102 7.11133 20.2505 7.12555 20.1971 7.15125C20.0793 7.20793 19.9918 7.31953 19.9706 7.45614L19.4274 10.9L19.4118 11.0003C19.4476 10.7737 19.6411 10.6068 19.8706 10.6068H20.8264C22.7035 10.6068 24.1734 9.84371 24.603 7.63616C24.6158 7.57083 24.6266 7.50726 24.6362 7.44504C24.5275 7.38729 24.4099 7.33793 24.2831 7.29586C24.2518 7.28544 24.2195 7.27541 24.1869 7.26567Z" fill="#22284F"/>
<path fill-rule="evenodd" clip-rule="evenodd" d="M19.9726 7.45579C19.9939 7.31917 20.0812 7.20758 20.1991 7.15129C20.2529 7.12549 20.3122 7.11127 20.3752 7.11127H22.9285C23.231 7.11127 23.5134 7.13114 23.7711 7.17282C23.8447 7.1846 23.9162 7.19823 23.986 7.21352C24.0555 7.2291 24.1232 7.24653 24.1889 7.26561C24.2215 7.27535 24.2538 7.28548 24.2854 7.29551C24.4121 7.33758 24.53 7.38733 24.6386 7.44469C24.7665 6.62877 24.6376 6.07324 24.1969 5.57019C23.711 5.01631 22.8341 4.7793 21.7119 4.7793H18.4541C18.225 4.7793 18.0294 4.9461 17.994 5.17318L16.6371 13.7825C16.6103 13.9528 16.7416 14.1065 16.9132 14.1065H18.9244L19.9726 7.45579Z" fill="#28356A"/>
<path fill-rule="evenodd" clip-rule="evenodd" d="M9.55805 17.2598H7.18284C7.02028 17.2598 6.88204 17.3779 6.85665 17.5386L5.89599 23.6352C5.87693 23.7556 5.97003 23.8639 6.09192 23.8639H7.22583C7.38836 23.8639 7.52661 23.7458 7.552 23.5848L7.81109 21.9404C7.83605 21.7795 7.97458 21.6613 8.13686 21.6613H8.88874C10.4534 21.6613 11.3563 20.9034 11.5922 19.4016C11.6985 18.7446 11.5967 18.2283 11.2893 17.8668C10.9517 17.4698 10.3529 17.2598 9.55805 17.2598ZM9.83203 19.4865C9.70212 20.3396 9.05094 20.3396 8.42134 20.3396H8.06284L8.31431 18.7463C8.32927 18.65 8.41256 18.5791 8.50989 18.5791H8.67417C9.10309 18.5791 9.5077 18.5791 9.71672 18.8238C9.84145 18.9698 9.87957 19.1867 9.83203 19.4865Z" fill="#28356A"/>
<path fill-rule="evenodd" clip-rule="evenodd" d="M16.717 19.4118H15.5796C15.4827 19.4118 15.3989 19.4827 15.384 19.579L15.3336 19.8974L15.2542 19.7821C15.0079 19.4243 14.4588 19.3047 13.9108 19.3047C12.6538 19.3047 11.5803 20.2576 11.3712 21.5943C11.2626 22.2611 11.4171 22.8987 11.795 23.3433C12.1416 23.7521 12.6376 23.9225 13.2276 23.9225C14.2404 23.9225 14.8019 23.2706 14.8019 23.2706L14.7512 23.587C14.7322 23.7079 14.8252 23.8164 14.9464 23.8164H15.9709C16.1339 23.8164 16.2714 23.6982 16.2971 23.5373L16.9119 19.6405C16.9313 19.5206 16.8385 19.4118 16.717 19.4118ZM15.1315 21.6278C15.0218 22.2781 14.5061 22.7147 13.8482 22.7147C13.518 22.7147 13.2541 22.6087 13.0845 22.4078C12.9164 22.2083 12.8526 21.9243 12.9059 21.6079C13.0085 20.963 13.5329 20.5121 14.1807 20.5121C14.5036 20.5121 14.7662 20.6196 14.9392 20.8221C15.1124 21.0269 15.1812 21.3127 15.1315 21.6278Z" fill="#28356A"/>
<path fill-rule="evenodd" clip-rule="evenodd" d="M22.6897 19.5098H21.5466C21.4376 19.5098 21.3352 19.564 21.2734 19.6548L19.6969 21.9791L19.0287 19.7455C18.9867 19.6057 18.8578 19.5098 18.712 19.5098H17.5888C17.4522 19.5098 17.3575 19.6433 17.4009 19.772L18.6599 23.4701L17.4763 25.1426C17.3832 25.2744 17.4769 25.4555 17.6378 25.4555H18.7794C18.8878 25.4555 18.9891 25.4026 19.0506 25.3137L22.8522 19.8209C22.9432 19.6895 22.8497 19.5098 22.6897 19.5098Z" fill="#28356A"/>
<path fill-rule="evenodd" clip-rule="evenodd" d="M26.4985 17.2598H24.1231C23.9609 17.2598 23.8226 17.3779 23.7972 17.5386L22.8366 23.6352C22.8175 23.7556 22.9106 23.8639 23.0318 23.8639H24.2509C24.364 23.8639 24.4609 23.7813 24.4786 23.6686L24.7513 21.9404C24.7762 21.7795 24.9149 21.6613 25.0771 21.6613H25.8287C27.3936 21.6613 28.2962 20.9034 28.5324 19.4016C28.639 18.7446 28.5366 18.2283 28.2292 17.8668C27.8919 17.4698 27.2935 17.2598 26.4985 17.2598ZM26.7726 19.4865C26.643 20.3396 25.9918 20.3396 25.3618 20.3396H25.0038L25.2556 18.7463C25.2705 18.65 25.3531 18.5791 25.4507 18.5791H25.615C26.0436 18.5791 26.4485 18.5791 26.6576 18.8238C26.7823 18.9698 26.8201 19.1867 26.7726 19.4865Z" fill="#298FC2"/>
<path fill-rule="evenodd" clip-rule="evenodd" d="M33.66 19.4118H32.5232C32.4257 19.4118 32.3427 19.4827 32.3281 19.579L32.2778 19.8974L32.1978 19.7821C31.9516 19.4243 31.4029 19.3047 30.8548 19.3047C29.5979 19.3047 28.5248 20.2576 28.3158 21.5943C28.2074 22.2611 28.3612 22.8987 28.739 23.3433C29.0864 23.7521 29.5816 23.9225 30.1717 23.9225C31.1844 23.9225 31.746 23.2706 31.746 23.2706L31.6953 23.587C31.6763 23.7079 31.7693 23.8164 31.8912 23.8164H32.9154C33.0776 23.8164 33.2158 23.6982 33.2412 23.5373L33.8563 19.6405C33.875 19.5206 33.7819 19.4118 33.66 19.4118ZM32.0746 21.6278C31.9656 22.2781 31.4491 22.7147 30.7913 22.7147C30.4617 22.7147 30.1971 22.6087 30.0275 22.4078C29.8595 22.2083 29.7962 21.9243 29.849 21.6079C29.9522 20.963 30.4759 20.5121 31.1237 20.5121C31.4467 20.5121 31.7092 20.6196 31.8822 20.8221C32.0561 21.0269 32.1249 21.3127 32.0746 21.6278Z" fill="#298FC2"/>
<path fill-rule="evenodd" clip-rule="evenodd" d="M34.9046 17.4273L33.9297 23.6354C33.9106 23.7558 34.0036 23.8642 34.1248 23.8642H35.105C35.2679 23.8642 35.4061 23.7461 35.431 23.5851L36.3924 17.4889C36.4116 17.3685 36.3184 17.2598 36.1972 17.2598H35.0998C35.0029 17.2601 34.9195 17.3311 34.9046 17.4273Z" fill="#298FC2"/>
</svg>
