<svg width="42" height="42" viewBox="0 0 42 42" fill="none" xmlns="http://www.w3.org/2000/svg">
<g clip-path="url(#clip0_445_2268)">
<path d="M20.9964 3.5L21.2029 3.51225L21.3062 3.52625L21.4129 3.549L21.6072 3.6085C21.7414 3.65796 21.8689 3.72379 21.9869 3.8045L22.1689 3.948L22.6152 4.3295C26.1455 7.26174 30.6072 8.83628 35.1959 8.76925L35.7944 8.75175C36.1857 8.7339 36.5717 8.84784 36.8906 9.07532C37.2094 9.30281 37.4427 9.6307 37.5532 10.0065C38.4131 12.9318 38.6763 16 38.327 19.029C37.9777 22.058 37.0231 24.9858 35.5199 27.6386C34.0168 30.2913 31.9957 32.6149 29.5768 34.4711C27.1579 36.3273 24.3905 37.6784 21.4392 38.444C21.1511 38.5187 20.8488 38.5187 20.5607 38.444C17.6092 37.6786 14.8416 36.3277 12.4225 34.4715C10.0035 32.6154 7.98218 30.2919 6.47883 27.6391C4.97548 24.9863 4.02074 22.0584 3.67134 19.0293C3.32194 16.0003 3.58502 12.9319 4.44494 10.0065C4.55538 9.6307 4.78871 9.30281 5.10757 9.07532C5.42643 8.84784 5.8124 8.7339 6.20369 8.75175C10.9942 8.97073 15.694 7.39373 19.3829 4.3295L19.8432 3.93575L20.0112 3.8045C20.1292 3.72379 20.2568 3.65796 20.3909 3.6085L20.5869 3.549C20.6555 3.53243 20.7251 3.52016 20.7952 3.51225L20.9964 3.5ZM27.4889 16.2628C27.3264 16.1 27.1334 15.971 26.921 15.8829C26.7085 15.7948 26.4808 15.7495 26.2508 15.7495C26.0208 15.7495 25.7931 15.7948 25.5807 15.8829C25.3682 15.971 25.1752 16.1 25.0127 16.2628L19.2499 22.0238L16.9872 19.7628L16.8227 19.6175C16.471 19.3455 16.0289 19.2176 15.5863 19.2598C15.1437 19.302 14.7337 19.511 14.4396 19.8445C14.1456 20.178 13.9895 20.6109 14.003 21.0553C14.0166 21.4997 14.1988 21.9223 14.5127 22.2372L18.0127 25.7372L18.1772 25.8825C18.5139 26.1437 18.9343 26.273 19.3596 26.2463C19.7849 26.2196 20.1858 26.0386 20.4872 25.7372L27.4872 18.7372L27.6324 18.5728C27.8936 18.236 28.023 17.8156 27.9962 17.3903C27.9695 16.965 27.7885 16.5641 27.4872 16.2628H27.4889Z" fill="#141414"/>
</g>
<defs>
<clipPath id="clip0_445_2268">
<rect width="42" height="42" fill="white"/>
</clipPath>
</defs>
</svg>
