<svg width="20" height="20" viewBox="0 0 20 20" fill="none" xmlns="http://www.w3.org/2000/svg">
<g clip-path="url(#clip0_281_4028)">
<path d="M14.1667 14.1667H15.8333C16.2754 14.1667 16.6993 13.9911 17.0118 13.6785C17.3244 13.366 17.5 12.942 17.5 12.5V9.16667C17.5 8.72464 17.3244 8.30072 17.0118 7.98816C16.6993 7.6756 16.2754 7.5 15.8333 7.5H4.16667C3.72464 7.5 3.30072 7.6756 2.98816 7.98816C2.67559 8.30072 2.5 8.72464 2.5 9.16667V12.5C2.5 12.942 2.67559 13.366 2.98816 13.6785C3.30072 13.9911 3.72464 14.1667 4.16667 14.1667H5.83333" stroke="#424242" stroke-width="1.5" stroke-linecap="round" stroke-linejoin="round"/>
<path d="M14.1673 7.5V4.16667C14.1673 3.72464 13.9917 3.30072 13.6792 2.98816C13.3666 2.67559 12.9427 2.5 12.5007 2.5H7.50065C7.05862 2.5 6.6347 2.67559 6.32214 2.98816C6.00958 3.30072 5.83398 3.72464 5.83398 4.16667V7.5" stroke="#424242" stroke-width="1.5" stroke-linecap="round" stroke-linejoin="round"/>
<path d="M5.83398 12.4999C5.83398 12.0579 6.00958 11.634 6.32214 11.3214C6.6347 11.0088 7.05862 10.8333 7.50065 10.8333H12.5007C12.9427 10.8333 13.3666 11.0088 13.6792 11.3214C13.9917 11.634 14.1673 12.0579 14.1673 12.4999V15.8333C14.1673 16.2753 13.9917 16.6992 13.6792 17.0118C13.3666 17.3243 12.9427 17.4999 12.5007 17.4999H7.50065C7.05862 17.4999 6.6347 17.3243 6.32214 17.0118C6.00958 16.6992 5.83398 16.2753 5.83398 15.8333V12.4999Z" stroke="#424242" stroke-width="1.5" stroke-linecap="round" stroke-linejoin="round"/>
</g>
<defs>
<clipPath id="clip0_281_4028">
<rect width="20" height="20" fill="white"/>
</clipPath>
</defs>
</svg>
