<svg width="20" height="20" viewBox="0 0 20 20" fill="none" xmlns="http://www.w3.org/2000/svg">
<g clip-path="url(#clip0_701_29085)">
<path d="M10 2.5C11.9465 4.22215 14.4871 5.11881 17.0833 5C17.4613 6.28585 17.577 7.63456 17.4234 8.96598C17.2699 10.2974 16.8503 11.5844 16.1895 12.7504C15.5287 13.9165 14.6403 14.9378 13.577 15.7537C12.5138 16.5696 11.2973 17.1635 10 17.5C8.70268 17.1635 7.48623 16.5696 6.42296 15.7537C5.35968 14.9378 4.47126 13.9165 3.8105 12.7504C3.14974 11.5844 2.73011 10.2974 2.57656 8.96598C2.42302 7.63456 2.53867 6.28585 2.91667 5C5.51294 5.11881 8.05348 4.22215 10 2.5Z" stroke="#424242" stroke-width="1.5" stroke-linecap="round" stroke-linejoin="round"/>
<path d="M9.16699 9.16732C9.16699 9.38833 9.25479 9.60029 9.41107 9.75657C9.56735 9.91285 9.77931 10.0007 10.0003 10.0007C10.2213 10.0007 10.4333 9.91285 10.5896 9.75657C10.7459 9.60029 10.8337 9.38833 10.8337 9.16732C10.8337 8.9463 10.7459 8.73434 10.5896 8.57806C10.4333 8.42178 10.2213 8.33398 10.0003 8.33398C9.77931 8.33398 9.56735 8.42178 9.41107 8.57806C9.25479 8.73434 9.16699 8.9463 9.16699 9.16732Z" stroke="#424242" stroke-width="1.5" stroke-linecap="round" stroke-linejoin="round"/>
<path d="M10 10V12.0833" stroke="#424242" stroke-width="1.5" stroke-linecap="round" stroke-linejoin="round"/>
</g>
<defs>
<clipPath id="clip0_701_29085">
<rect width="20" height="20" fill="white"/>
</clipPath>
</defs>
</svg>
