<svg width="20" height="20" viewBox="0 0 20 20" fill="none" xmlns="http://www.w3.org/2000/svg">
<g clip-path="url(#clip0_566_3452)">
<path d="M10 6.66669V10L11.6667 11.6667" stroke="#424242" stroke-width="1.5" stroke-linecap="round" stroke-linejoin="round"/>
<path d="M2.54167 9.16666C2.72841 7.33338 3.58355 5.63301 4.94395 4.38997C6.30434 3.14693 8.07475 2.44823 9.9174 2.42719C11.7601 2.40614 13.546 3.06422 14.9344 4.27586C16.3228 5.4875 17.2166 7.16789 17.4451 8.99644C17.6737 10.825 17.2211 12.6737 16.1736 14.1898C15.1262 15.7059 13.5572 16.7834 11.7661 17.2165C9.97493 17.6497 8.08701 17.4083 6.4625 16.5384C4.83799 15.6685 3.5906 14.2309 2.95833 12.5M2.54167 16.6667V12.5H6.70833" stroke="#424242" stroke-width="1.5" stroke-linecap="round" stroke-linejoin="round"/>
</g>
<defs>
<clipPath id="clip0_566_3452">
<rect width="20" height="20" fill="white"/>
</clipPath>
</defs>
</svg>
