<svg width="20" height="20" viewBox="0 0 20 20" fill="none" xmlns="http://www.w3.org/2000/svg">
<g clip-path="url(#clip0_701_29044)">
<path d="M10 7.5V10.8333" stroke="#424242" stroke-width="1.5" stroke-linecap="round" stroke-linejoin="round"/>
<path d="M8.63574 2.99201L1.88074 14.2703C1.74149 14.5115 1.6678 14.7849 1.667 15.0634C1.6662 15.3418 1.73832 15.6157 1.87619 15.8576C2.01407 16.0996 2.21288 16.3012 2.45286 16.4425C2.69284 16.5837 2.96562 16.6597 3.24407 16.6628H16.7557C17.0341 16.6596 17.3067 16.5836 17.5466 16.4424C17.7864 16.3012 17.9852 16.0997 18.123 15.8578C18.2609 15.616 18.333 15.3423 18.3323 15.064C18.3316 14.7856 18.2581 14.5123 18.1191 14.2712L11.3641 2.99117C11.222 2.75659 11.0217 2.56263 10.7828 2.428C10.5438 2.29338 10.2742 2.22266 9.99991 2.22266C9.72563 2.22266 9.45599 2.29338 9.21703 2.428C8.97807 2.56263 8.77786 2.75659 8.63574 2.99117" stroke="#424242" stroke-width="1.5" stroke-linecap="round" stroke-linejoin="round"/>
<path d="M10 13.334H10.0083" stroke="#424242" stroke-width="1.5" stroke-linecap="round" stroke-linejoin="round"/>
</g>
<defs>
<clipPath id="clip0_701_29044">
<rect width="20" height="20" fill="white"/>
</clipPath>
</defs>
</svg>
