<svg width="18" height="18" viewBox="0 0 18 18" fill="none" xmlns="http://www.w3.org/2000/svg">
<g clip-path="url(#clip0_281_4115)">
<path d="M10.875 4.87503L13.125 2.70003C13.4134 2.41161 13.8046 2.24957 14.2125 2.24957C14.6204 2.24957 15.0116 2.41161 15.3 2.70003C15.5884 2.98845 15.7505 3.37964 15.7505 3.78753C15.7505 4.19542 15.5884 4.58661 15.3 4.87503L13.125 7.12503L15 12.75L13.125 14.6625L10.5 9.75003L8.25 12V14.25L6.75 15.75L5.625 12.375L2.25 11.25L3.75 9.75003H6L8.25 7.50003L3.375 4.87503L5.25 3.00003L10.875 4.87503Z" stroke="#424242" stroke-width="1.3" stroke-linecap="round" stroke-linejoin="round"/>
</g>
<defs>
<clipPath id="clip0_281_4115">
<rect width="18" height="18" fill="white"/>
</clipPath>
</defs>
</svg>
