<svg width="20" height="20" viewBox="0 0 20 20" fill="none" xmlns="http://www.w3.org/2000/svg">
<g clip-path="url(#clip0_456_5413)">
<path d="M7.5 11.666C7.5 13.0468 9.73833 14.166 12.5 14.166C15.2617 14.166 17.5 13.0468 17.5 11.666C17.5 10.2852 15.2617 9.16602 12.5 9.16602C9.73833 9.16602 7.5 10.2852 7.5 11.666Z" stroke="#424242" stroke-width="1.5" stroke-linecap="round" stroke-linejoin="round"/>
<path d="M7.5 11.666V14.9993C7.5 16.3793 9.73833 17.4993 12.5 17.4993C15.2617 17.4993 17.5 16.3793 17.5 14.9993V11.666" stroke="#424242" stroke-width="1.5" stroke-linecap="round" stroke-linejoin="round"/>
<path d="M2.5 5C2.5 5.89333 3.45333 6.71833 5 7.165C6.54667 7.61167 8.45333 7.61167 10 7.165C11.5467 6.71833 12.5 5.89333 12.5 5C12.5 4.10667 11.5467 3.28167 10 2.835C8.45333 2.38833 6.54667 2.38833 5 2.835C3.45333 3.28167 2.5 4.10667 2.5 5Z" stroke="#424242" stroke-width="1.5" stroke-linecap="round" stroke-linejoin="round"/>
<path d="M2.5 5V13.3333C2.5 14.0733 3.14333 14.5417 4.16667 15" stroke="#424242" stroke-width="1.5" stroke-linecap="round" stroke-linejoin="round"/>
<path d="M2.5 9.16602C2.5 9.90602 3.14333 10.3743 4.16667 10.8327" stroke="#424242" stroke-width="1.5" stroke-linecap="round" stroke-linejoin="round"/>
</g>
<defs>
<clipPath id="clip0_456_5413">
<rect width="20" height="20" fill="white"/>
</clipPath>
</defs>
</svg>
