<svg width="20" height="20" viewBox="0 0 20 20" fill="none" xmlns="http://www.w3.org/2000/svg">
<g clip-path="url(#clip0_701_29071)">
<path d="M2.5 5.00065C2.5 4.55862 2.67559 4.1347 2.98816 3.82214C3.30072 3.50958 3.72464 3.33398 4.16667 3.33398H15.8333C16.2754 3.33398 16.6993 3.50958 17.0118 3.82214C17.3244 4.1347 17.5 4.55862 17.5 5.00065V15.0007C17.5 15.4427 17.3244 15.8666 17.0118 16.1792C16.6993 16.4917 16.2754 16.6673 15.8333 16.6673H4.16667C3.72464 16.6673 3.30072 16.4917 2.98816 16.1792C2.67559 15.8666 2.5 15.4427 2.5 15.0007V5.00065Z" stroke="#424242" stroke-width="1.5" stroke-linecap="round" stroke-linejoin="round"/>
<path d="M5.83301 6.66602H14.1663" stroke="#424242" stroke-width="1.5" stroke-linecap="round" stroke-linejoin="round"/>
<path d="M5.83301 10H14.1663" stroke="#424242" stroke-width="1.5" stroke-linecap="round" stroke-linejoin="round"/>
<path d="M5.83301 13.334H14.1663" stroke="#424242" stroke-width="1.5" stroke-linecap="round" stroke-linejoin="round"/>
</g>
<defs>
<clipPath id="clip0_701_29071">
<rect width="20" height="20" fill="white"/>
</clipPath>
</defs>
</svg>
