<svg width="24" height="24" viewBox="0 0 24 24" fill="none" xmlns="http://www.w3.org/2000/svg">
<g clip-path="url(#clip0_3561_5977)">
<path d="M11.9999 18L9.99995 14L2.99995 10.5C2.90421 10.4561 2.82307 10.3857 2.76619 10.2971C2.70931 10.2084 2.67908 10.1053 2.67908 10C2.67908 9.89468 2.70931 9.79158 2.76619 9.70295C2.82307 9.61431 2.90421 9.54387 2.99995 9.5L20.9999 3L18.0989 11.034" stroke="#737373" stroke-width="1.5" stroke-linecap="round" stroke-linejoin="round"/>
<path d="M21.121 20.121C21.5406 19.7015 21.8265 19.1669 21.9423 18.585C22.0581 18.003 21.9988 17.3997 21.7717 16.8515C21.5447 16.3033 21.1602 15.8347 20.6668 15.505C20.1734 15.1753 19.5934 14.9994 19 14.9994C18.4066 14.9994 17.8266 15.1753 17.3332 15.505C16.8398 15.8347 16.4553 16.3033 16.2283 16.8515C16.0012 17.3997 15.9419 18.003 16.0577 18.585C16.1735 19.1669 16.4594 19.7015 16.879 20.121C17.297 20.54 18.004 21.166 19 22C20.051 21.11 20.759 20.484 21.121 20.121Z" stroke="#737373" stroke-width="1.5" stroke-linecap="round" stroke-linejoin="round"/>
<path d="M19 18V18.01" stroke="#737373" stroke-width="1.5" stroke-linecap="round" stroke-linejoin="round"/>
</g>
<defs>
<clipPath id="clip0_3561_5977">
<rect width="24" height="24" fill="white"/>
</clipPath>
</defs>
</svg>
