<svg width="20" height="20" viewBox="0 0 20 20" fill="none" xmlns="http://www.w3.org/2000/svg">
<g clip-path="url(#clip0_701_29028)">
<path d="M2.5 15.8346C2.5 16.2767 2.67559 16.7006 2.98816 17.0131C3.30072 17.3257 3.72464 17.5013 4.16667 17.5013C4.60869 17.5013 5.03262 17.3257 5.34518 17.0131C5.65774 16.7006 5.83333 16.2767 5.83333 15.8346C5.83333 15.3926 5.65774 14.9687 5.34518 14.6561C5.03262 14.3436 4.60869 14.168 4.16667 14.168C3.72464 14.168 3.30072 14.3436 2.98816 14.6561C2.67559 14.9687 2.5 15.3926 2.5 15.8346Z" stroke="#424242" stroke-width="1.5" stroke-linecap="round" stroke-linejoin="round"/>
<path d="M15.8333 5.83333C16.2754 5.83333 16.6993 5.65774 17.0118 5.34518C17.3244 5.03262 17.5 4.60869 17.5 4.16667C17.5 3.72464 17.3244 3.30072 17.0118 2.98816C16.6993 2.67559 16.2754 2.5 15.8333 2.5C15.3913 2.5 14.9674 2.67559 14.6548 2.98816C14.3423 3.30072 14.1667 3.72464 14.1667 4.16667C14.1667 4.60869 14.3423 5.03262 14.6548 5.34518C14.9674 5.65774 15.3913 5.83333 15.8333 5.83333Z" stroke="#424242" stroke-width="1.5" stroke-linecap="round" stroke-linejoin="round"/>
<path d="M9.16666 15.8337H13.75C14.5235 15.8337 15.2654 15.5264 15.8124 14.9794C16.3594 14.4324 16.6667 13.6905 16.6667 12.917C16.6667 12.1434 16.3594 11.4016 15.8124 10.8546C15.2654 10.3076 14.5235 10.0003 13.75 10.0003H7.08333C6.30978 10.0003 5.56792 9.69303 5.02094 9.14605C4.47396 8.59907 4.16666 7.85721 4.16666 7.08366C4.16666 6.31011 4.47396 5.56825 5.02094 5.02126C5.56792 4.47428 6.30978 4.16699 7.08333 4.16699H10.8333" stroke="#424242" stroke-width="1.5" stroke-linecap="round" stroke-linejoin="round"/>
</g>
<defs>
<clipPath id="clip0_701_29028">
<rect width="20" height="20" fill="white"/>
</clipPath>
</defs>
</svg>
