<svg width="20" height="20" viewBox="0 0 20 20" fill="none" xmlns="http://www.w3.org/2000/svg">
<g clip-path="url(#clip0_1622_4397)">
<path d="M2.5 15.8334C2.5 16.2754 2.67559 16.6994 2.98816 17.0119C3.30072 17.3245 3.72464 17.5001 4.16667 17.5001C4.60869 17.5001 5.03262 17.3245 5.34518 17.0119C5.65774 16.6994 5.83333 16.2754 5.83333 15.8334C5.83333 15.3914 5.65774 14.9675 5.34518 14.6549C5.03262 14.3423 4.60869 14.1667 4.16667 14.1667C3.72464 14.1667 3.30072 14.3423 2.98816 14.6549C2.67559 14.9675 2.5 15.3914 2.5 15.8334Z" stroke="#737373" stroke-width="1.5" stroke-linecap="round" stroke-linejoin="round"/>
<path d="M15.8333 5.83333C16.2753 5.83333 16.6992 5.65774 17.0118 5.34518C17.3244 5.03262 17.5 4.60869 17.5 4.16667C17.5 3.72464 17.3244 3.30072 17.0118 2.98816C16.6992 2.67559 16.2753 2.5 15.8333 2.5C15.3913 2.5 14.9673 2.67559 14.6548 2.98816C14.3422 3.30072 14.1666 3.72464 14.1666 4.16667C14.1666 4.60869 14.3422 5.03262 14.6548 5.34518C14.9673 5.65774 15.3913 5.83333 15.8333 5.83333Z" stroke="#737373" stroke-width="1.5" stroke-linecap="round" stroke-linejoin="round"/>
<path d="M9.16663 15.8334H13.75C14.5235 15.8334 15.2654 15.5261 15.8124 14.9791C16.3593 14.4322 16.6666 13.6903 16.6666 12.9167C16.6666 12.1432 16.3593 11.4013 15.8124 10.8544C15.2654 10.3074 14.5235 10.0001 13.75 10.0001H7.08329C6.30974 10.0001 5.56788 9.69279 5.0209 9.14581C4.47392 8.59883 4.16663 7.85696 4.16663 7.08341C4.16663 6.30987 4.47392 5.568 5.0209 5.02102C5.56788 4.47404 6.30974 4.16675 7.08329 4.16675H10.8333" stroke="#737373" stroke-width="1.5" stroke-linecap="round" stroke-linejoin="round"/>
</g>
<defs>
<clipPath id="clip0_1622_4397">
<rect width="20" height="20" fill="white"/>
</clipPath>
</defs>
</svg>
