<svg width="20" height="20" viewBox="0 0 20 20" fill="none" xmlns="http://www.w3.org/2000/svg">
<g clip-path="url(#clip0_358_10690)">
<path d="M11.6667 2.5V5.83333C11.6667 6.05435 11.7545 6.26631 11.9107 6.42259C12.067 6.57887 12.279 6.66667 12.5 6.66667H15.8333" stroke="#424242" stroke-width="1.5" stroke-linecap="round" stroke-linejoin="round"/>
<path d="M4.16666 6.66667V4.16667C4.16666 3.72464 4.34226 3.30072 4.65482 2.98816C4.96738 2.67559 5.3913 2.5 5.83333 2.5H11.6667L15.8333 6.66667V15.8333C15.8333 16.2754 15.6577 16.6993 15.3452 17.0118C15.0326 17.3244 14.6087 17.5 14.1667 17.5H10" stroke="#424242" stroke-width="1.5" stroke-linecap="round" stroke-linejoin="round"/>
<path d="M2.5 11.668C2.5 12.331 2.76339 12.9669 3.23223 13.4357C3.70107 13.9046 4.33696 14.168 5 14.168C5.66304 14.168 6.29893 13.9046 6.76777 13.4357C7.23661 12.9669 7.5 12.331 7.5 11.668C7.5 11.0049 7.23661 10.369 6.76777 9.9002C6.29893 9.43136 5.66304 9.16797 5 9.16797C4.33696 9.16797 3.70107 9.43136 3.23223 9.9002C2.76339 10.369 2.5 11.0049 2.5 11.668Z" stroke="#424242" stroke-width="1.5" stroke-linecap="round" stroke-linejoin="round"/>
<path d="M3.75 14.168L2.5 18.3346L5 17.0846L7.5 18.3346L6.25 14.168" stroke="#424242" stroke-width="1.5" stroke-linecap="round" stroke-linejoin="round"/>
</g>
<defs>
<clipPath id="clip0_358_10690">
<rect width="20" height="20" fill="white"/>
</clipPath>
</defs>
</svg>
