<svg width="16" height="16" viewBox="0 0 16 16" fill="none" xmlns="http://www.w3.org/2000/svg">
<g clip-path="url(#clip0_281_5574)">
<path d="M8.00759 1.34082C8.52612 1.34085 9.02688 1.52973 9.41626 1.87215L9.51893 1.96882L9.98426 2.43415C10.112 2.56103 10.2787 2.64112 10.4576 2.66149L10.5476 2.66682H11.2143C11.7591 2.66679 12.2832 2.8752 12.6793 3.24931C13.0754 3.62343 13.3133 4.13489 13.3443 4.67882L13.3476 4.80015V5.46682C13.3476 5.64682 13.4089 5.82215 13.5196 5.96215L13.5796 6.02882L14.0443 6.49415C14.4294 6.87712 14.654 7.39257 14.6722 7.9354C14.6904 8.47823 14.5009 9.00757 14.1423 9.41549L14.0456 9.51815L13.5803 9.98349C13.4534 10.1112 13.3733 10.278 13.3529 10.4568L13.3476 10.5468V11.2135C13.3476 11.7583 13.1392 12.2825 12.7651 12.6785C12.391 13.0746 11.8795 13.3125 11.3356 13.3435L11.2143 13.3468H10.5476C10.3678 13.3469 10.1934 13.4075 10.0523 13.5188L9.98559 13.5788L9.52026 14.0435C9.13729 14.4286 8.62185 14.6532 8.07901 14.6714C7.53618 14.6896 7.00684 14.5001 6.59893 14.1415L6.49626 14.0448L6.03093 13.5795C5.90322 13.4526 5.73645 13.3725 5.55759 13.3522L5.46759 13.3468H4.80093C4.25611 13.3469 3.73193 13.1384 3.33588 12.7643C2.93983 12.3902 2.70191 11.8787 2.67093 11.3348L2.66759 11.2135V10.5468C2.66753 10.3671 2.60694 10.1926 2.49559 10.0515L2.43559 9.98482L1.97093 9.51949C1.58578 9.13652 1.36121 8.62107 1.343 8.07824C1.32479 7.53541 1.51431 7.00607 1.87293 6.59815L1.96959 6.49549L2.43493 6.03015C2.5618 5.90245 2.64189 5.73568 2.66226 5.55682L2.66759 5.46682V4.80015L2.67093 4.67882C2.70069 4.15578 2.92188 3.66199 3.29232 3.29155C3.66276 2.9211 4.15656 2.69992 4.67959 2.67015L4.80093 2.66682H5.46759C5.64734 2.66676 5.82183 2.60617 5.96293 2.49482L6.02959 2.43482L6.49493 1.97015C6.69315 1.77075 6.92884 1.61249 7.18844 1.50449C7.44804 1.39648 7.72642 1.34086 8.00759 1.34082ZM10.4723 6.19549C10.3472 6.07051 10.1777 6.0003 10.0009 6.0003C9.82415 6.0003 9.65461 6.07051 9.52959 6.19549L7.33426 8.39015L6.47226 7.52882L6.40959 7.47349C6.2756 7.36988 6.10719 7.32116 5.93857 7.33722C5.76996 7.35328 5.61378 7.43292 5.50176 7.55997C5.38974 7.68701 5.33027 7.85193 5.33544 8.02123C5.34061 8.19053 5.41003 8.35151 5.52959 8.47149L6.86293 9.80482L6.92559 9.86015C7.05386 9.95965 7.21403 10.0089 7.37605 9.99875C7.53806 9.98856 7.6908 9.9196 7.80559 9.80482L10.4723 7.13815L10.5276 7.07549C10.6271 6.94722 10.6764 6.78705 10.6662 6.62503C10.656 6.46302 10.587 6.31028 10.4723 6.19549Z" fill="#4285F4"/>
</g>
<defs>
<clipPath id="clip0_281_5574">
<rect width="16" height="16" fill="white"/>
</clipPath>
</defs>
</svg>
