<svg width="152" height="32" viewBox="0 0 152 32" fill="none" xmlns="http://www.w3.org/2000/svg">
<g clip-path="url(#clip0_456_5989)">
<path d="M69.259 5.25781H42.7448C41.3562 5.25781 40.2305 6.3835 40.2305 7.7721V24.2292C40.2305 25.6178 41.3562 26.7435 42.7448 26.7435H69.259C70.6476 26.7435 71.7733 25.6178 71.7733 24.2292V7.7721C71.7733 6.3835 70.6476 5.25781 69.259 5.25781Z" fill="white" stroke="#D9D9D9"/>
<path fill-rule="evenodd" clip-rule="evenodd" d="M56.1804 20.9196C55.091 21.8597 53.6777 22.4273 52.1336 22.4273C48.6879 22.4273 45.8947 19.6016 45.8947 16.116C45.8947 12.6303 48.6879 9.80469 52.1336 9.80469C53.6777 9.80469 55.091 10.3722 56.1804 11.3124C57.2698 10.3722 58.683 9.80469 60.2272 9.80469C63.6728 9.80469 66.4661 12.6303 66.4661 16.116C66.4661 19.6016 63.6728 22.4273 60.2272 22.4273C58.683 22.4273 57.2698 21.8597 56.1804 20.9196Z" fill="#ED0006"/>
<path fill-rule="evenodd" clip-rule="evenodd" d="M56.1797 20.9196C57.5211 19.762 58.3717 18.0395 58.3717 16.116C58.3717 14.1925 57.5211 12.47 56.1797 11.3124C57.2692 10.3722 58.6823 9.80469 60.2265 9.80469C63.6722 9.80469 66.4654 12.6303 66.4654 16.116C66.4654 19.6016 63.6722 22.4273 60.2265 22.4273C58.6823 22.4273 57.2692 21.8597 56.1797 20.9196Z" fill="#F9A000"/>
<path fill-rule="evenodd" clip-rule="evenodd" d="M56.1804 11.3125C57.5218 12.4701 58.3724 14.1926 58.3724 16.1161C58.3724 18.0396 57.5218 19.7621 56.1804 20.9197C54.839 19.7621 53.9884 18.0396 53.9884 16.1161C53.9884 14.1926 54.839 12.4701 56.1804 11.3125Z" fill="#FF5E00"/>
</g>
<g clip-path="url(#clip1_456_5989)">
<path d="M109.795 5.24219H82.2084C81.1419 5.24219 80.2773 6.10674 80.2773 7.17322V24.8284C80.2773 25.8949 81.1419 26.7594 82.2084 26.7594H109.795C110.861 26.7594 111.726 25.8949 111.726 24.8284V7.17322C111.726 6.10674 110.861 5.24219 109.795 5.24219Z" fill="white" stroke="#D9D9D9"/>
<path d="M98.9201 19.3566H93.4492V9.60156H98.9201V19.3566Z" fill="#6C6BBD"/>
<path d="M93.7983 14.4794C93.7983 12.5005 94.7322 10.7378 96.1863 9.60186C95.1229 8.77119 93.7808 8.27539 92.3223 8.27539C88.8693 8.27539 86.0703 11.053 86.0703 14.4794C86.0703 17.9058 88.8693 20.6834 92.3223 20.6834C93.7808 20.6834 95.1229 20.1876 96.1863 19.3569C94.7322 18.221 93.7983 16.4582 93.7983 14.4794Z" fill="#EB001B"/>
<path d="M106.3 14.4794C106.3 17.9058 103.501 20.6834 100.048 20.6834C98.5894 20.6834 97.2474 20.1876 96.1836 19.3569C97.6382 18.221 98.572 16.4582 98.572 14.4794C98.572 12.5005 97.6382 10.7378 96.1836 9.60186C97.2474 8.77119 98.5894 8.27539 100.048 8.27539C103.501 8.27539 106.3 11.053 106.3 14.4794Z" fill="#0099DF"/>
<path d="M100.772 22.1133C100.845 22.1133 100.949 22.1271 101.029 22.1582L100.918 22.4958C100.842 22.4647 100.765 22.4545 100.692 22.4545C100.456 22.4545 100.338 22.6059 100.338 22.8781V23.8018H99.9766V22.1547H100.334V22.3547C100.428 22.2099 100.564 22.1133 100.772 22.1133Z" fill="#3A3A3A"/>
<path d="M99.4367 22.4833H98.8463V23.2276C98.8463 23.3929 98.9052 23.5034 99.0861 23.5034C99.1799 23.5034 99.2979 23.4722 99.4053 23.4102L99.5095 23.7167C99.395 23.796 99.2145 23.8446 99.0583 23.8446C98.6309 23.8446 98.4818 23.617 98.4818 23.2343V22.4833H98.1447V22.1559H98.4818V21.6562H98.8463V22.1559H99.4367V22.4833Z" fill="#3A3A3A"/>
<path fill-rule="evenodd" clip-rule="evenodd" d="M95.26 22.1133C95.7256 22.1133 96.0452 22.4647 96.0488 22.9783C96.0488 23.026 96.0452 23.0702 96.0417 23.1148L96.0416 23.1159H94.8088C94.8609 23.4122 95.0728 23.5191 95.3054 23.5191C95.4719 23.5191 95.6492 23.4571 95.788 23.3467L95.9653 23.6121C95.7637 23.7809 95.5347 23.8429 95.2847 23.8429C94.7878 23.8429 94.4336 23.5017 94.4336 22.9783C94.4336 22.4647 94.7738 22.1133 95.26 22.1133ZM95.2533 22.4336C94.9961 22.4336 94.8506 22.5957 94.812 22.8335H95.6735C95.6353 22.5783 95.4858 22.4336 95.2533 22.4336Z" fill="#3A3A3A"/>
<path d="M97.6374 22.5751C97.5369 22.5128 97.3321 22.4336 97.1203 22.4336C96.9223 22.4336 96.8042 22.5061 96.8042 22.6268C96.8042 22.7368 96.929 22.768 97.0853 22.7885L97.2554 22.8126C97.6168 22.8647 97.8354 23.0161 97.8354 23.3056C97.8354 23.6192 97.5576 23.8433 97.0785 23.8433C96.8074 23.8433 96.5573 23.7742 96.3594 23.6295L96.5295 23.3502C96.6512 23.4433 96.832 23.5226 97.0821 23.5226C97.3286 23.5226 97.4606 23.4504 97.4606 23.3226C97.4606 23.2299 97.3667 23.1778 97.1688 23.1506L96.9986 23.1266C96.6269 23.0745 96.4254 22.9093 96.4254 22.6406C96.4254 22.3132 96.6965 22.1133 97.1167 22.1133C97.3806 22.1133 97.6203 22.172 97.7937 22.2856L97.6374 22.5751Z" fill="#3A3A3A"/>
<path fill-rule="evenodd" clip-rule="evenodd" d="M102.45 22.18C102.34 22.1354 102.221 22.1133 102.092 22.1133C101.963 22.1133 101.844 22.1354 101.734 22.18C101.624 22.2241 101.53 22.2853 101.451 22.363C101.371 22.4407 101.309 22.5326 101.263 22.6383C101.218 22.7444 101.195 22.8595 101.195 22.9838C101.195 23.108 101.218 23.2232 101.263 23.3293C101.309 23.435 101.371 23.5273 101.451 23.605C101.53 23.6827 101.624 23.7435 101.734 23.788C101.844 23.8322 101.963 23.8543 102.092 23.8543C102.221 23.8543 102.34 23.8322 102.45 23.788C102.559 23.7435 102.654 23.6827 102.734 23.605C102.815 23.5273 102.877 23.435 102.922 23.3293C102.968 23.2232 102.99 23.108 102.99 22.9838C102.99 22.8595 102.968 22.7444 102.922 22.6383C102.877 22.5326 102.815 22.4407 102.734 22.363C102.654 22.2853 102.559 22.2241 102.45 22.18ZM101.885 22.4924C101.949 22.4667 102.017 22.4537 102.092 22.4537C102.166 22.4537 102.235 22.4667 102.299 22.4924C102.363 22.5184 102.419 22.5547 102.465 22.6012C102.512 22.6477 102.549 22.7037 102.576 22.7688C102.603 22.8339 102.616 22.9057 102.616 22.9838C102.616 23.0623 102.603 23.1337 102.576 23.1987C102.549 23.2638 102.512 23.3198 102.465 23.3664C102.419 23.4129 102.363 23.4492 102.299 23.4753C102.235 23.5013 102.166 23.5139 102.092 23.5139C102.017 23.5139 101.949 23.5013 101.885 23.4753C101.821 23.4492 101.766 23.4129 101.719 23.3664C101.673 23.3198 101.636 23.2638 101.61 23.1987C101.583 23.1337 101.57 23.0623 101.57 22.9838C101.57 22.9057 101.583 22.8339 101.61 22.7688C101.636 22.7037 101.673 22.6477 101.719 22.6012C101.766 22.5547 101.821 22.5184 101.885 22.4924Z" fill="#3A3A3A"/>
<path fill-rule="evenodd" clip-rule="evenodd" d="M94.0474 22.1547V22.9783V23.8018H93.6864V23.6019C93.5715 23.7502 93.3982 23.8433 93.162 23.8433C92.6966 23.8433 92.332 23.4812 92.332 22.9783C92.332 22.475 92.6966 22.1133 93.162 22.1133C93.3982 22.1133 93.5715 22.2064 93.6864 22.3547V22.1547H94.0474ZM93.207 22.4509C92.8945 22.4509 92.7033 22.6888 92.7033 22.9783C92.7033 23.2678 92.8945 23.5052 93.207 23.5052C93.5055 23.5052 93.7071 23.278 93.7071 22.9783C93.7071 22.6785 93.5055 22.4509 93.207 22.4509Z" fill="#3A3A3A"/>
<path d="M92.0114 23.802V22.7682C92.0114 22.3789 91.7614 22.117 91.3587 22.1134C91.1467 22.1098 90.9277 22.1753 90.775 22.4064C90.6606 22.2238 90.4797 22.1134 90.2261 22.1134C90.0492 22.1134 89.8755 22.1651 89.7399 22.3579V22.1548H89.3789V23.802H89.7435V22.8889C89.7435 22.6029 89.9033 22.451 90.1497 22.451C90.3894 22.451 90.5111 22.6061 90.5111 22.8853V23.802H90.8756V22.8889C90.8756 22.6029 91.0426 22.451 91.2819 22.451C91.5288 22.451 91.6469 22.6061 91.6469 22.8853V23.802H92.0114Z" fill="#3A3A3A"/>
</g>
<g clip-path="url(#clip2_456_5989)">
<path d="M149.795 5.24219H122.208C121.142 5.24219 120.277 6.10674 120.277 7.17322V24.8284C120.277 25.8949 121.142 26.7594 122.208 26.7594H149.795C150.861 26.7594 151.726 25.8949 151.726 24.8284V7.17322C151.726 6.10674 150.861 5.24219 149.795 5.24219Z" fill="white" stroke="#D9D9D9"/>
<path fill-rule="evenodd" clip-rule="evenodd" d="M130.522 16.1781C130.522 17.5254 131.58 18.5701 132.941 18.5701C133.326 18.5701 133.656 18.4945 134.062 18.303V17.2506C133.705 17.6083 133.388 17.7526 132.983 17.7526C132.082 17.7526 131.443 17.0997 131.443 16.1714C131.443 15.2914 132.103 14.5971 132.941 14.5971C133.368 14.5971 133.691 14.7493 134.062 15.1128V14.0609C133.67 13.8618 133.347 13.7793 132.962 13.7793C131.608 13.7793 130.522 14.8452 130.522 16.1781ZM128.227 15.0648C128.227 15.3125 128.385 15.4434 128.921 15.642C129.938 16.0141 130.24 16.3436 130.24 17.072C130.24 17.9593 129.588 18.5771 128.659 18.5771C127.978 18.5771 127.484 18.3092 127.072 17.7044L127.649 17.1482C127.855 17.5462 128.199 17.7597 128.625 17.7597C129.024 17.7597 129.319 17.4845 129.319 17.1131C129.319 16.9206 129.23 16.7554 129.051 16.6387C128.962 16.5834 128.783 16.5012 128.433 16.3776C127.593 16.0755 127.306 15.7521 127.306 15.1206C127.306 14.3704 127.924 13.8072 128.735 13.8072C129.238 13.8072 129.698 13.979 130.082 14.3153L129.614 14.9279C129.381 14.6669 129.161 14.5567 128.893 14.5567C128.508 14.5567 128.227 14.7762 128.227 15.0648ZM125.841 18.4669H126.735V13.883H125.841V18.4669ZM124.013 17.3264C123.732 17.5802 123.367 17.6909 122.79 17.6909H122.55V14.6595H122.79C123.367 14.6595 123.718 14.763 124.013 15.0304C124.322 15.3056 124.508 15.7324 124.508 16.1714C124.508 16.6115 124.322 17.0512 124.013 17.3264ZM122.969 13.883H121.656V18.4667H122.962C123.656 18.4667 124.157 18.3031 124.597 17.9376C125.12 17.505 125.429 16.8527 125.429 16.1781C125.429 14.8253 124.419 13.883 122.969 13.883ZM139.93 13.883L141.152 16.962L142.39 13.883H143.359L141.379 18.5845H140.898L138.953 13.883H139.93ZM143.764 18.4669H146.299V17.6908H144.657V16.4534H146.239V15.677H144.657V14.6596H146.299V13.8829H143.764V18.4669ZM147.785 15.9933H148.046C148.617 15.9933 148.92 15.7451 148.92 15.2843C148.92 14.8383 148.617 14.605 148.06 14.605H147.785V15.9933ZM148.217 13.8828C149.248 13.8828 149.84 14.378 149.84 15.2362C149.84 15.938 149.469 16.3988 148.795 16.5357L150.238 18.4668H149.139L147.901 16.6253H147.785V18.4668H146.891V13.8828H148.217Z" fill="#1D1D1B"/>
<path fill-rule="evenodd" clip-rule="evenodd" d="M138.845 17.5045C139.57 16.3697 139.239 14.8622 138.104 14.1365C136.97 13.4109 135.462 13.7422 134.736 14.877C134.01 16.0114 134.342 17.5194 135.477 18.2451C136.611 18.9707 138.119 18.6389 138.845 17.5045Z" fill="url(#paint0_linear_456_5989)"/>
</g>
<g clip-path="url(#clip3_456_5989)">
<path d="M29.259 5.25781H2.74475C1.35615 5.25781 0.230469 6.3835 0.230469 7.7721V24.2292C0.230469 25.6178 1.35615 26.7435 2.74475 26.7435H29.259C30.6476 26.7435 31.7733 25.6178 31.7733 24.2292V7.7721C31.7733 6.3835 30.6476 5.25781 29.259 5.25781Z" fill="white" stroke="#D9D9D9"/>
<path fill-rule="evenodd" clip-rule="evenodd" d="M9.71351 19.894H7.77495L6.32124 14.3481C6.25225 14.093 6.10574 13.8674 5.89024 13.7611C5.35241 13.494 4.75977 13.2814 4.11328 13.1742V12.9607H7.23616C7.6672 12.9607 7.99045 13.2814 8.0443 13.6539L8.79858 17.6544L10.7362 12.9607H12.6209L9.71351 19.894ZM13.6984 19.894H11.8676L13.3752 12.9607H15.206L13.6984 19.894ZM17.5746 14.8814C17.6285 14.508 17.9518 14.2945 18.3289 14.2945C18.9216 14.2409 19.5671 14.3481 20.1059 14.6143L20.4291 13.1215C19.8903 12.908 19.2977 12.8008 18.7599 12.8008C16.983 12.8008 15.6899 13.7611 15.6899 15.094C15.6899 16.108 16.6058 16.6404 17.2523 16.9611C17.9518 17.281 18.2212 17.4945 18.1673 17.8143C18.1673 18.294 17.6285 18.5076 17.0907 18.5076C16.4442 18.5076 15.7977 18.3477 15.206 18.0805L14.8827 19.5742C15.5292 19.8404 16.2287 19.9477 16.8752 19.9477C18.8677 20.0003 20.1059 19.0409 20.1059 17.6008C20.1059 15.7873 17.5746 15.681 17.5746 14.8814ZM26.5133 19.894L25.0596 12.9607H23.4981C23.1749 12.9607 22.8516 13.1742 22.7439 13.494L20.052 19.894H21.9367L22.3129 18.881H24.6286L24.8441 19.894H26.5133ZM23.7675 14.8278L24.3053 17.4409H22.7978L23.7675 14.8278Z" fill="#172B85"/>
</g>
<defs>
<linearGradient id="paint0_linear_456_5989" x1="140.158" y1="15.4502" x2="136.05" y2="12.8227" gradientUnits="userSpaceOnUse">
<stop stop-color="#F6A000"/>
<stop offset="0.623918" stop-color="#E47E02"/>
<stop offset="1" stop-color="#D36002"/>
</linearGradient>
<clipPath id="clip0_456_5989">
<rect width="32" height="32" fill="white" transform="translate(40)"/>
</clipPath>
<clipPath id="clip1_456_5989">
<rect width="32" height="32" fill="white" transform="translate(80)"/>
</clipPath>
<clipPath id="clip2_456_5989">
<rect width="32" height="32" fill="white" transform="translate(120)"/>
</clipPath>
<clipPath id="clip3_456_5989">
<rect width="32" height="32" fill="white"/>
</clipPath>
</defs>
</svg>
