<svg width="20" height="20" viewBox="0 0 20 20" fill="none" xmlns="http://www.w3.org/2000/svg">
<g clip-path="url(#clip0_657_12679)">
<path d="M3.33398 11.6667V9.16667C3.33398 7.39856 4.03636 5.70286 5.28661 4.45262C6.53685 3.20238 8.23254 2.5 10.0007 2.5C11.7688 2.5 13.4645 3.20238 14.7147 4.45262C15.9649 5.70286 16.6673 7.39856 16.6673 9.16667V11.6667" stroke="#424242" stroke-width="1.5" stroke-linecap="round" stroke-linejoin="round"/>
<path d="M15 15.8334C15 17.2142 12.7617 18.3334 10 18.3334" stroke="#424242" stroke-width="1.5" stroke-linecap="round" stroke-linejoin="round"/>
<path d="M3.33398 11.6667C3.33398 11.2246 3.50958 10.8007 3.82214 10.4882C4.1347 10.1756 4.55862 10 5.00065 10H5.83398C6.27601 10 6.69993 10.1756 7.0125 10.4882C7.32506 10.8007 7.50065 11.2246 7.50065 11.6667V14.1667C7.50065 14.6087 7.32506 15.0326 7.0125 15.3452C6.69993 15.6577 6.27601 15.8333 5.83398 15.8333H5.00065C4.55862 15.8333 4.1347 15.6577 3.82214 15.3452C3.50958 15.0326 3.33398 14.6087 3.33398 14.1667V11.6667Z" stroke="#424242" stroke-width="1.5" stroke-linecap="round" stroke-linejoin="round"/>
<path d="M12.5 11.6667C12.5 11.2246 12.6756 10.8007 12.9882 10.4882C13.3007 10.1756 13.7246 10 14.1667 10H15C15.442 10 15.866 10.1756 16.1785 10.4882C16.4911 10.8007 16.6667 11.2246 16.6667 11.6667V14.1667C16.6667 14.6087 16.4911 15.0326 16.1785 15.3452C15.866 15.6577 15.442 15.8333 15 15.8333H14.1667C13.7246 15.8333 13.3007 15.6577 12.9882 15.3452C12.6756 15.0326 12.5 14.6087 12.5 14.1667V11.6667Z" stroke="#424242" stroke-width="1.5" stroke-linecap="round" stroke-linejoin="round"/>
</g>
<defs>
<clipPath id="clip0_657_12679">
<rect width="20" height="20" fill="white"/>
</clipPath>
</defs>
</svg>
